<svg width="1440" height="886" viewBox="0 0 1440 886" fill="none" xmlns="http://www.w3.org/2000/svg">
<rect width="1440" height="886" fill="#1E1E1E"/>
<path d="M479.039 130.316C483.381 130.316 486.668 133.832 487.336 139.562H492.434V128.102H497.426V160.445H492.434V143.57H487.406C486.879 149.723 483.521 153.484 479.039 153.484C474.082 153.484 470.531 149.02 470.566 141.848C470.531 134.781 474.082 130.316 479.039 130.316ZM479.039 134.887C476.895 134.887 475.383 137.242 475.418 141.848C475.383 146.523 476.895 148.879 479.039 148.879C481.254 148.879 482.66 146.523 482.66 141.848C482.66 137.242 481.254 134.887 479.039 134.887ZM528.504 128.102V160.445H523.477V147.648H518.344V143.535H523.477V138.895H518.379V134.816H523.477V128.102H528.504ZM516.797 130.738V143.43H507.34V149.16C511.066 149.143 514.406 148.967 518.203 148.422L518.625 152.535C513.879 153.273 509.801 153.344 504.879 153.344H502.312V139.527H511.84V134.711H502.207V130.738H516.797ZM546.996 128.488C554.238 128.523 558.809 130.879 558.844 134.816C558.809 138.684 554.238 141.004 546.996 141.004C539.824 141.004 535.148 138.684 535.148 134.816C535.148 130.879 539.824 128.523 546.996 128.488ZM546.996 132.355C542.742 132.32 540.387 133.129 540.422 134.816C540.387 136.398 542.742 137.172 546.996 137.172C551.215 137.172 553.605 136.398 553.605 134.816C553.605 133.129 551.215 132.32 546.996 132.355ZM558.211 148.914V160.023H535.676V148.914H544.43V146.418H532.301V142.41H561.727V146.418H549.492V148.914H558.211ZM540.633 152.887V155.98H553.289V152.887H540.633ZM578.109 128.523C585.633 128.559 589.922 130.492 589.957 134.008C589.922 137.594 585.633 139.527 578.109 139.527C570.586 139.527 566.262 137.594 566.262 134.008C566.262 130.492 570.586 128.559 578.109 128.523ZM578.109 132.215C573.574 132.215 571.57 132.812 571.57 134.008C571.57 135.379 573.574 135.801 578.109 135.836C582.715 135.801 584.719 135.379 584.719 134.008C584.719 132.812 582.715 132.215 578.109 132.215ZM592.84 140.828V144.836H563.414V140.828H592.84ZM589.324 146.383V154.926H571.746V156.402H590.098V160.199H566.754V151.41H584.297V150.039H566.754V146.383H589.324ZM628.277 128.137V137.805H632.461V141.918H628.277V152.219H623.215V128.137H628.277ZM621.668 131.371V135.309H602.543V131.371H609.574V128.102H614.637V131.371H621.668ZM612.105 136.223C616.816 136.223 620.121 138.789 620.121 142.551C620.121 146.277 616.816 148.773 612.105 148.773C607.395 148.773 604.02 146.277 604.055 142.551C604.02 138.789 607.395 136.223 612.105 136.223ZM612.105 140.09C610.242 140.09 608.977 140.934 608.977 142.551C608.977 144.168 610.242 144.941 612.105 144.977C614.004 144.941 615.305 144.168 615.305 142.551C615.305 140.934 614.004 140.09 612.105 140.09ZM629.332 155.805V159.848H607.113V150.355H612.176V155.805H629.332ZM661.008 128.137V151.902H655.98V140.547H650.566V146.945H634.992V130.246H640.09V134.922H645.574V130.246H650.566V136.504H655.98V128.137H661.008ZM661.676 155.805V159.848H639.352V149.512H644.484V155.805H661.676ZM640.09 143.008H645.574V138.754H640.09V143.008ZM691.91 128.102V160.445H686.812V128.102H691.91ZM674.297 130.316C679.184 130.316 682.84 134.781 682.875 141.848C682.84 149.02 679.184 153.484 674.297 153.484C669.305 153.484 665.648 149.02 665.648 141.848C665.648 134.781 669.305 130.316 674.297 130.316ZM674.297 134.887C672.012 134.887 670.535 137.242 670.57 141.848C670.535 146.523 672.012 148.879 674.297 148.879C676.512 148.879 677.988 146.523 677.988 141.848C677.988 137.242 676.512 134.887 674.297 134.887ZM721.512 128.102V140.09H726.082V144.273H721.512V160.445H716.52V128.102H721.512ZM712.23 130.738V143.5H702.316V148.809C706.641 148.791 710.367 148.598 714.445 147.93L714.902 151.938C710.016 152.852 705.516 153.027 700.031 153.027H697.289V139.562H707.168V134.781H697.254V130.738H712.23ZM753.398 142.34V146.312H744.223V152.711H756.527V156.824H727.031V152.711H739.23V146.312H730.406V130.281H753.188V134.289H735.469V142.34H753.398ZM783.457 129.93C783.457 130.896 783.387 131.811 783.281 132.707H788.484V128.137H793.512V146.523H788.484V143.676H781.594V139.668H788.484V136.75H782.156C779.994 141.672 775.336 145.1 768.516 146.875L766.582 142.938C773.49 141.25 777.252 137.893 778.043 133.938H768.375V129.93H783.457ZM781.312 147.789V160.305H776.215V151.797H770.098V147.789H781.312ZM793.512 147.789V160.305H788.484V151.797H782.648V147.789H793.512ZM806.273 130.316C810.615 130.316 813.902 133.832 814.57 139.562H819.668V128.102H824.66V160.445H819.668V143.57H814.641C814.113 149.723 810.756 153.484 806.273 153.484C801.316 153.484 797.766 149.02 797.801 141.848C797.766 134.781 801.316 130.316 806.273 130.316ZM806.273 134.887C804.129 134.887 802.617 137.242 802.652 141.848C802.617 146.523 804.129 148.879 806.273 148.879C808.488 148.879 809.895 146.523 809.895 141.848C809.895 137.242 808.488 134.887 806.273 134.887ZM865.969 152.641V156.754H836.473V152.641H848.672V146.98H839.496V130.105H844.559V134.852H857.742V130.105H862.805V146.98H853.664V152.641H865.969ZM844.559 142.973H857.742V138.824H844.559V142.973ZM894.902 128.102V146.559H889.875V141.109H884.918V137.102H889.875V135.168H884.918V131.16H889.875V128.102H894.902ZM880.031 132.18C879.996 136.434 881.859 140.828 887.168 142.691L884.285 146.699C880.963 145.451 878.748 143.131 877.43 140.195C876.006 143.289 873.633 145.75 870.117 147.051L867.27 143.078C872.824 141.109 874.863 136.645 874.863 132.18V129.297H880.031V132.18ZM880.066 148.387C880.066 150.953 881.016 153.555 883.512 155.348C885.973 153.449 886.922 150.742 886.957 148.387V147.719H891.949V148.387C891.949 151.762 893.496 154.891 897.961 156.227L895.395 159.918C892.371 158.881 890.438 157 889.348 154.539C888.24 157 886.377 159.092 883.477 160.199C880.559 159.127 878.678 157.105 877.605 154.645C876.498 157 874.6 158.881 871.699 159.918L869.238 156.227C873.562 154.82 875.145 151.621 875.145 148.387V147.719H880.066V148.387ZM924.293 128.102V139.844H928.863V143.957H924.293V160.445H919.23V128.102H924.293ZM915.082 131.055V135.133H904.992V148.527C909.334 148.492 913.078 148.229 917.156 147.543L917.684 151.762C912.727 152.605 908.262 152.711 902.707 152.711H899.93V131.055H915.082ZM946.582 130.668V132.988H952.102V128.137H957.129V151.586H952.102V143.922H946.582V146.594H931.113V130.668H946.582ZM936.141 134.641V142.656H941.625V134.641H936.141ZM957.797 155.805V159.848H935.473V149.336H940.605V155.805H957.797ZM946.582 139.949H952.102V137.031H946.582V139.949ZM968.203 154.328L965.074 164.488H960.961L962.648 154.328H968.203Z" fill="white"/>
<path d="M472.693 178.562V181.34C472.658 183.994 472.658 187.053 471.92 191.043L473.818 190.797L474.1 194.523C472.289 194.893 470.303 195.139 468.299 195.297V205.844H463.447V195.613C461.479 195.684 459.65 195.701 458.139 195.719L457.576 191.57C460.125 191.588 463.605 191.57 467.104 191.395C467.297 190.357 467.438 189.391 467.561 188.477L459.299 189.109L458.807 185.172L467.877 184.785C467.895 184.047 467.912 183.326 467.912 182.641H459.545V178.562H472.693ZM486.721 176.102V208.375H481.939V176.102H486.721ZM480.041 176.559V206.934H475.33V200.43H470.408V196.668H475.33V176.559H480.041ZM506.443 180.18C506.408 184.68 509.924 189.777 517.764 191.078L515.549 195.262C509.783 194.172 505.811 191.113 503.736 187.141C501.645 191.078 497.654 194.154 491.924 195.262L489.779 191.078C497.443 189.742 500.994 184.609 501.029 180.18V177.93H506.443V180.18ZM518.678 200.395V204.543H489.182V200.395H518.678ZM546.662 192.52V196.492H523.67V178.352H546.416V182.43H528.838V185.383H545.643V189.32H528.838V192.52H546.662ZM549.791 200.676V204.754H520.295V200.676H549.791ZM568.67 180.18C568.635 184.68 572.15 189.777 579.99 191.078L577.775 195.262C572.01 194.172 568.037 191.113 565.963 187.141C563.871 191.078 559.881 194.154 554.15 195.262L552.006 191.078C559.67 189.742 563.221 184.609 563.256 180.18V177.93H568.67V180.18ZM580.904 200.395V204.543H551.408V200.395H580.904ZM608.643 177.051V179.934C608.643 182.395 608.643 184.943 608.115 188.02H611.877V191.992H599.713V193.785H608.748V202.68H590.783V204.156H609.873V208.023H585.756V199.094H603.721V197.617H585.721V193.785H594.65V191.992H582.627V188.02H602.982C603.123 187.264 603.229 186.561 603.334 185.875L585.721 186.543L585.158 182.711L603.58 182.395V180.918H586.072V177.051H608.643ZM640.74 176.102V208.445H635.643V176.102H640.74ZM623.127 178.316C628.014 178.316 631.67 182.781 631.705 189.848C631.67 197.02 628.014 201.484 623.127 201.484C618.135 201.484 614.479 197.02 614.479 189.848C614.479 182.781 618.135 178.316 623.127 178.316ZM623.127 182.887C620.842 182.887 619.365 185.242 619.4 189.848C619.365 194.523 620.842 196.879 623.127 196.879C625.342 196.879 626.818 194.523 626.818 189.848C626.818 185.242 625.342 182.887 623.127 182.887ZM680.01 176.102V192.59H674.912V176.102H680.01ZM680.01 193.785V202.715H662.889V204.227H680.783V208.199H657.861V199.094H674.982V197.688H657.791V193.785H680.01ZM671.748 178.035V181.867H669.252V187.668C670.482 187.58 671.695 187.457 672.873 187.316L673.084 190.902C666.686 191.992 659.408 192.133 653.854 192.133L653.326 188.23L656.561 188.195V181.867H654.17V178.035H671.748ZM661.412 188.09L664.4 187.984V181.867H661.412V188.09ZM713.408 200.605V204.719H683.912V200.605H690.275V192.941C687.867 191.412 686.408 189.127 686.408 186.297C686.408 181.023 691.576 177.543 698.607 177.543C705.639 177.543 710.877 181.023 710.877 186.297C710.877 189.074 709.453 191.324 707.115 192.836V200.605H713.408ZM698.607 181.516C694.213 181.48 691.4 183.203 691.436 186.297C691.4 189.355 694.213 191.148 698.607 191.148C702.967 191.148 705.85 189.355 705.85 186.297C705.85 183.203 702.967 181.48 698.607 181.516ZM695.268 200.605H701.982V194.77C700.91 194.963 699.785 195.051 698.607 195.051C697.43 195.051 696.322 194.963 695.268 194.77V200.605ZM740.619 176.102V188.512H745.189V192.695H740.619V208.375H735.627V176.102H740.619ZM733.729 180.812V184.82H714.85V180.812H721.846V176.629H726.908V180.812H733.729ZM724.377 186.367C729.088 186.367 732.674 189.602 732.709 194.137C732.674 198.707 729.088 201.906 724.377 201.906C719.525 201.906 715.975 198.707 716.01 194.137C715.975 189.602 719.525 186.367 724.377 186.367ZM724.377 190.445C722.303 190.48 720.826 191.816 720.861 194.137C720.826 196.527 722.303 197.793 724.377 197.793C726.381 197.793 727.822 196.527 727.857 194.137C727.822 191.816 726.381 190.48 724.377 190.445ZM773.244 176.137V199.656H768.182V176.137H773.244ZM774.053 203.805V207.848H751.377V197.336H756.51V203.805H774.053ZM758.795 180.988C758.76 185.066 760.693 189.145 766.178 190.832L763.611 194.805C760.008 193.645 757.6 191.395 756.193 188.512C754.734 191.623 752.238 194.119 748.494 195.332L745.857 191.359C751.482 189.531 753.521 185.137 753.521 180.988V177.895H758.795V180.988ZM804.393 178.809V182.781H785.268V178.809H792.299V175.961H797.361V178.809H804.393ZM794.83 183.59C799.541 183.59 802.846 186.051 802.846 189.566C802.846 193.152 799.541 195.578 794.83 195.578C790.154 195.578 786.744 193.152 786.779 189.566C786.744 186.051 790.154 183.59 794.83 183.59ZM794.83 187.387C792.967 187.387 791.701 188.09 791.701 189.566C791.701 191.078 792.967 191.746 794.83 191.746C796.729 191.746 798.029 191.078 798.029 189.566C798.029 188.09 796.729 187.387 794.83 187.387ZM811.002 176.102V184.293H815.186V188.406H811.002V196.352H805.939V176.102H811.002ZM811.002 197.582V208.375H805.939V201.625H789.1V197.582H811.002ZM826.963 181.656C826.928 185.031 828.475 188.318 832.553 190.023V176.699H837.229V183.766H839.408V176.137H844.225V195.824H839.408V187.844H837.229V194.805H832.553V190.551L830.162 194.031C827.525 193.012 825.715 191.236 824.572 189.004C823.412 191.676 821.461 193.891 818.525 195.086L815.818 191.184C820.424 189.145 822.006 185.242 822.006 181.656V178.07H826.963V181.656ZM833.08 196.141C839.936 196.141 844.365 198.461 844.4 202.258C844.365 206.055 839.936 208.41 833.08 208.375C826.225 208.41 821.795 206.055 821.83 202.258C821.795 198.461 826.225 196.141 833.08 196.141ZM833.08 199.938C829.107 199.902 826.857 200.676 826.893 202.258C826.857 203.84 829.107 204.578 833.08 204.578C837.053 204.578 839.268 203.84 839.303 202.258C839.268 200.676 837.053 199.902 833.08 199.938ZM874.635 176.102V208.445H869.537V176.102H874.635ZM857.021 178.316C861.908 178.316 865.564 182.781 865.6 189.848C865.564 197.02 861.908 201.484 857.021 201.484C852.029 201.484 848.373 197.02 848.373 189.848C848.373 182.781 852.029 178.316 857.021 178.316ZM857.021 182.887C854.736 182.887 853.26 185.242 853.295 189.848C853.26 194.523 854.736 196.879 857.021 196.879C859.236 196.879 860.713 194.523 860.713 189.848C860.713 185.242 859.236 182.887 857.021 182.887ZM891.545 182.957C891.51 188.898 893.795 194.84 899.525 197.195L896.537 201.273C892.916 199.656 890.49 196.65 889.049 192.871C887.625 197.037 885.094 200.359 881.174 202.117L878.15 197.898C884.057 195.473 886.377 189.285 886.412 182.957V178.492H891.545V182.957ZM905.748 176.102V208.445H900.65V176.102H905.748ZM935.877 177.543V180.391C935.877 183.08 935.877 185.945 935.244 189.602H939.252V193.574H927.264V200.184H922.201V193.574H909.756V189.602H930.111C930.709 186.438 930.797 183.941 930.814 181.586H913.307V177.543H935.877ZM936.299 203.805V207.848H913.061V197.266H918.123V203.805H936.299ZM970.365 200.605V204.719H940.869V200.605H947.232V192.941C944.824 191.412 943.365 189.127 943.365 186.297C943.365 181.023 948.533 177.543 955.564 177.543C962.596 177.543 967.834 181.023 967.834 186.297C967.834 189.074 966.41 191.324 964.072 192.836V200.605H970.365ZM955.564 181.516C951.17 181.48 948.357 183.203 948.393 186.297C948.357 189.355 951.17 191.148 955.564 191.148C959.924 191.148 962.807 189.355 962.807 186.297C962.807 183.203 959.924 181.48 955.564 181.516ZM952.225 200.605H958.939V194.77C957.867 194.963 956.742 195.051 955.564 195.051C954.387 195.051 953.279 194.963 952.225 194.77V200.605ZM979.998 179.547L979.471 197.23H974.443L973.916 179.547H979.998ZM976.939 205.352C975.182 205.352 973.74 203.945 973.775 202.152C973.74 200.43 975.182 199.023 976.939 199.023C978.627 199.023 980.104 200.43 980.139 202.152C980.104 203.945 978.627 205.352 976.939 205.352Z" fill="#FFC20E"/>
<g clip-path="url(#clip0_171_5358)">
<rect x="180" y="296" width="280" height="280" rx="140" fill="white"/>
<path d="M436.867 276.707L160.693 318.455L202.441 594.628L478.615 552.88L436.867 276.707Z" fill="white"/>
<mask id="mask0_171_5358" style="mask-type:luminance" maskUnits="userSpaceOnUse" x="160" y="276" width="319" height="319">
<path d="M436.865 276.707L160.691 318.455L202.439 594.628L478.613 552.88L436.865 276.707Z" fill="white"/>
</mask>
<g mask="url(#mask0_171_5358)">
</g>
<mask id="mask1_171_5358" style="mask-type:luminance" maskUnits="userSpaceOnUse" x="160" y="276" width="319" height="319">
<path d="M436.865 276.707L160.691 318.455L202.439 594.628L478.613 552.88L436.865 276.707Z" fill="white"/>
</mask>
<g mask="url(#mask1_171_5358)">
<path fill-rule="evenodd" clip-rule="evenodd" d="M352.937 571.877C368.707 548.071 376.042 518.563 371.438 488.104C361.58 422.89 300.722 378.015 235.507 387.873C212.392 391.368 191.832 401.27 175.359 415.502L202.436 594.628L352.937 571.877Z" fill="#FFC20E"/>
<path d="M370.506 540.927C366.197 552.093 360.357 562.584 353.24 572.036M364.265 438.239C340.758 400.934 289.413 375.275 241.65 382.833C215.7 386.944 192.966 399.028 175.649 416.206" stroke="#393432" stroke-width="2.22222" stroke-linecap="round" stroke-linejoin="round"/>
<path d="M196.517 504.59C259.257 500.658 313.415 497.056 366.434 468.364C367.907 467.557 369.679 467.379 371.236 468.02C377.01 470.384 380.068 477.383 372.3 484.873C371.377 485.754 371.433 487.162 372.414 488.002C377.39 492.374 381.186 500.386 373.064 507.322C372.087 508.144 371.958 509.669 372.88 510.564C376.891 514.497 376.195 520.154 367.729 528.67C333.168 558.145 267.597 560.888 205.932 567.018" stroke="#393432" stroke-width="2.22222" stroke-linecap="round" stroke-linejoin="round"/>
</g>
<path d="M303.84 429.979C304.152 432.044 302.731 433.944 300.688 434.253C298.644 434.562 296.722 433.145 296.413 431.101C296.104 429.058 297.521 427.136 299.565 426.827C301.608 426.518 303.531 427.935 303.84 429.979Z" fill="#393432"/>
<path d="M336.637 417.402C336.949 419.467 335.528 421.368 333.484 421.676C331.441 421.985 329.519 420.568 329.21 418.524C328.901 416.481 330.318 414.559 332.362 414.25C334.405 413.941 336.328 415.358 336.637 417.402Z" fill="#393432"/>
<path d="M336.434 432.378C335.839 431.569 333.619 431.747 333.237 431.895C328.569 433.724 323.923 435.551 319.252 437.358C318.127 437.798 317.024 438.234 315.899 438.674C314.837 439.081 313.706 439.477 313.225 440.606C312.259 442.842 314.647 444.662 316.081 445.973C319.292 448.926 322.952 451.879 326.921 453.751C328.59 454.533 331.586 455.766 333.317 454.582C334.274 453.921 334.478 452.744 334.746 451.692C335.075 450.451 335.361 449.217 335.621 447.964C336.187 445.316 336.64 442.663 337.093 440.01C337.534 437.426 338.061 434.672 336.437 432.4L336.434 432.378ZM332.881 443.074C332.595 444.6 332.309 446.127 331.976 447.638C331.803 448.428 331.63 449.219 331.432 449.99C331.347 450.318 331.257 450.916 331.123 451.363C330.619 451.304 330.046 451.076 329.715 450.969C329.075 450.751 328.447 450.464 327.835 450.13C326.515 449.43 325.267 448.607 324.056 447.734C321.667 446.05 319.181 444.178 317.168 442.01C317.212 442.004 317.256 441.997 317.275 441.972L319.844 440.977C321.413 440.357 322.983 439.738 324.577 439.137C327.676 437.927 330.796 436.714 333.895 435.504C334.085 436.464 333.842 437.535 333.67 438.482C333.406 440.005 333.145 441.551 332.881 443.074Z" fill="#393432"/>
<path d="M388.127 529.498C388.189 531.691 388.099 533.031 388.078 535.124C388.03 537.334 390.143 538.97 392.272 538.333C409.594 533.242 429.224 527.803 446.126 522.753C448.17 522.152 450.314 521.468 451.763 519.901C453.635 517.865 453.881 514.883 454.025 512.12L454.045 511.802" stroke="#393432" stroke-width="2.22222" stroke-miterlimit="10"/>
<path d="M387.009 467.547C387.161 458.893 387.544 453.397 387.697 444.743C387.741 442.062 387.812 439.264 389 436.86C391.065 432.682 395.855 430.767 400.248 429.204C415.857 423.63 431.463 418.035 447.05 412.465C449.375 411.641 452.276 410.911 454.041 412.622C455.226 413.769 455.385 415.565 455.473 417.192C456.142 429.048 456.317 440.91 456.2 452.772" stroke="#393432" stroke-width="2.22222" stroke-miterlimit="10"/>
<path d="M445.249 455.709C443.552 456.82 442.08 458.233 441.05 459.895C439.223 462.823 440.493 466.025 442.197 468.823C443.21 470.468 443.074 472.691 441.91 474.059C437.355 479.31 439.231 484.285 443.279 489.809C444.017 490.821 444.035 492.279 443.33 493.262C442.624 494.245 441.901 495.411 441.799 495.628C437.783 504.888 448.799 511.898 455.525 511.938C461.98 511.973 465.912 480.746 465.854 471.293C465.831 465.341 465.217 457.86 460.266 454.248C455.647 450.901 449.463 452.959 445.271 455.706L445.249 455.709Z" stroke="#393432" stroke-width="2.22222" stroke-miterlimit="10"/>
<path d="M238.583 437.618C237.98 439.283 238.625 441.32 240.086 442.358C241.543 443.374 243.667 443.3 245.047 442.17C246.427 441.04 246.897 438.946 246.158 437.327" stroke="#393432" stroke-width="2.22" stroke-linecap="round" stroke-linejoin="round"/>
<path d="M253.044 449.434C252.636 451.047 253.024 452.876 254.175 454.095C255.326 455.315 257.202 455.683 258.753 455.089C261.046 454.203 261.437 450.84 260.926 449.097" stroke="#393432" stroke-width="2.22" stroke-linecap="round" stroke-linejoin="round"/>
</g>
<path d="M210.473 617.18C210.473 619.758 211.973 622.242 215.348 623.297L213.754 625.617C211.492 624.867 209.91 623.414 208.996 621.539C208.07 623.695 206.418 625.383 203.981 626.203L202.363 623.859C205.926 622.664 207.449 619.828 207.473 616.898V614.953H210.473V617.18ZM219.613 613.828V618.82H222.496V621.305H219.613V626.484H216.613V613.828H219.613ZM212.629 626.906C217.035 626.906 219.824 628.43 219.824 631.031C219.824 633.656 217.035 635.156 212.629 635.156C208.129 635.156 205.317 633.656 205.317 631.031C205.317 628.43 208.129 626.906 212.629 626.906ZM212.629 629.25C209.817 629.25 208.293 629.859 208.317 631.031C208.293 632.25 209.817 632.812 212.629 632.812C215.395 632.812 216.871 632.25 216.871 631.031C216.871 629.859 215.395 629.25 212.629 629.25ZM240.236 613.828V618.633H243.118V621.094H240.236V625.805H237.236V613.828H240.236ZM233.65 615.164V617.531H227.134V622.617C230.99 622.594 233.111 622.453 235.501 621.961L235.806 624.305C233.134 624.914 230.673 625.008 225.939 625.008H224.134V615.164H233.65ZM240.236 626.695V634.898H226.29V626.695H240.236ZM229.243 629.062V632.555H237.282V629.062H229.243ZM253.662 614.133C258.561 614.133 261.397 615.422 261.42 617.766C261.397 620.133 258.561 621.422 253.662 621.422C248.741 621.422 245.881 620.133 245.881 617.766C245.881 615.422 248.741 614.133 253.662 614.133ZM253.662 616.312C250.522 616.312 248.998 616.828 249.022 617.766C248.998 618.82 250.522 619.219 253.662 619.219C256.827 619.219 258.327 618.82 258.327 617.766C258.327 616.828 256.827 616.312 253.662 616.312ZM263.389 622.43V624.797H243.936V622.43H263.389ZM261.022 626.039V631.477H249.139V632.766H261.584V635.016H246.209V629.391H258.069V628.219H246.186V626.039H261.022ZM280.258 617.086V619.453H269.946V617.086H273.649V614.414H276.602V617.086H280.258ZM275.149 620.414C277.868 620.414 279.813 622.523 279.837 625.477C279.813 628.453 277.868 630.562 275.149 630.562C272.43 630.562 270.438 628.453 270.438 625.477C270.438 622.523 272.43 620.414 275.149 620.414ZM275.149 622.898C273.907 622.898 273.063 623.859 273.063 625.477C273.063 627.094 273.907 628.031 275.149 628.031C276.344 628.031 277.188 627.094 277.212 625.477C277.188 623.859 276.344 622.898 275.149 622.898ZM288.415 613.828V635.156H285.579V624.891H283.844V634.242H281.055V614.25H283.844V622.5H285.579V613.828H288.415ZM296.334 615.328C299.592 615.328 301.935 618.281 301.959 622.922C301.935 627.609 299.592 630.539 296.334 630.539C293.076 630.539 290.685 627.609 290.709 622.922C290.685 618.281 293.076 615.328 296.334 615.328ZM296.334 618.023C294.693 618.023 293.592 619.758 293.592 622.922C293.592 626.109 294.693 627.82 296.334 627.82C297.998 627.82 299.076 626.109 299.099 622.922C299.076 619.758 297.998 618.023 296.334 618.023ZM310.443 618.773V621.281H307.42V625.078H310.443V627.516H307.42V635.156H304.42V613.828H307.42V618.773H310.443ZM333.453 613.828V622.172H336.594V624.633H333.453V635.156H330.5V613.828H333.453ZM329.047 617.016V619.406H316.508V617.016H321.336V614.156H324.336V617.016H329.047ZM322.836 620.602C325.953 620.602 328.273 622.711 328.273 625.688C328.273 628.664 325.953 630.773 322.836 630.773C319.695 630.773 317.375 628.664 317.375 625.688C317.375 622.711 319.695 620.602 322.836 620.602ZM322.836 623.016C321.336 623.039 320.234 624.047 320.234 625.688C320.234 627.352 321.336 628.336 322.836 628.312C324.336 628.336 325.414 627.352 325.414 625.688C325.414 624.047 324.336 623.039 322.836 623.016ZM355.06 613.852V629.344H352.06V613.852H355.06ZM348.825 615.398C348.825 621.188 345.169 625.242 338.724 627.117L337.552 624.75C342.321 623.379 345.052 620.906 345.567 617.859H338.771V615.398H348.825ZM355.505 632.391V634.781H340.81V627.984H343.786V632.391H355.505ZM380.109 613.828V622.172H383.249V624.633H380.109V635.156H377.156V613.828H380.109ZM375.702 617.016V619.406H363.163V617.016H367.992V614.156H370.992V617.016H375.702ZM369.492 620.602C372.609 620.602 374.929 622.711 374.929 625.688C374.929 628.664 372.609 630.773 369.492 630.773C366.351 630.773 364.031 628.664 364.031 625.688C364.031 622.711 366.351 620.602 369.492 620.602ZM369.492 623.016C367.992 623.039 366.89 624.047 366.89 625.688C366.89 627.352 367.992 628.336 369.492 628.312C370.992 628.336 372.07 627.352 372.07 625.688C372.07 624.047 370.992 623.039 369.492 623.016ZM401.223 619.641V621.984H386.317V614.578H389.293V619.641H401.223ZM403.403 624.281V626.625H383.879V624.281H403.403ZM401.364 632.297V634.688H386.129V628.359H389.129V632.297H401.364ZM423.017 613.828V635.156H420.134V613.828H423.017ZM418.494 614.203V634.195H415.705V624.047H411.884V621.609H415.705V614.203H418.494ZM413.337 616.242V618.633H408.111V627.914C410.396 627.902 412.119 627.785 414.111 627.375L414.345 629.812C411.931 630.305 409.775 630.398 406.658 630.398H405.181V616.242H413.337ZM427.913 633.211C426.811 633.211 425.921 632.32 425.944 631.242C425.921 630.164 426.811 629.297 427.913 629.297C428.944 629.297 429.858 630.164 429.858 631.242C429.858 632.32 428.944 633.211 427.913 633.211ZM434.566 633.211C433.465 633.211 432.574 632.32 432.598 631.242C432.574 630.164 433.465 629.297 434.566 629.297C435.598 629.297 436.512 630.164 436.512 631.242C436.512 632.32 435.598 633.211 434.566 633.211ZM177.301 651.484C177.301 654.25 178.778 656.992 182.176 658.117L180.559 660.461C178.297 659.629 176.739 658.059 175.848 656.078C174.922 658.305 173.258 660.062 170.786 660.953L169.168 658.609C172.731 657.438 174.278 654.508 174.278 651.461V649.141H177.301V651.484ZM187.286 647.852V663.602H184.309V654.789H180.301V652.375H184.309V647.852H187.286ZM187.731 666.391V668.781H173.083V661.938H176.106V666.391H187.731ZM196.752 651.625C196.752 653.922 197.947 656.219 200.783 657.297L199.189 659.57C197.373 658.879 196.119 657.613 195.345 656.031C194.572 657.883 193.236 659.43 191.244 660.25L189.627 657.953C192.627 656.641 193.845 654.016 193.845 651.625V649.117H196.752V651.625ZM208.259 647.852V660.883H205.423V655.469H203.642V660.227H200.853V648.227H203.642V653.055H205.423V647.852H208.259ZM200.97 661.188C205.47 661.188 208.353 662.688 208.377 665.172C208.353 667.656 205.47 669.156 200.97 669.156C196.447 669.156 193.588 667.656 193.588 665.172C193.588 662.688 196.447 661.188 200.97 661.188ZM200.97 663.414C198.181 663.414 196.564 664.023 196.588 665.172C196.564 666.32 198.181 666.906 200.97 666.906C203.736 666.906 205.353 666.32 205.353 665.172C205.353 664.023 203.736 663.414 200.97 663.414ZM228.389 647.828V659.805H225.413V647.828H228.389ZM214.772 649.047V656.242C218.007 656.219 220.749 655.984 223.608 655.375L223.96 657.789C220.632 658.492 217.444 658.75 213.624 658.75H211.772V649.047H214.772ZM228.389 660.672V668.898H214.139V660.672H228.389ZM217.069 663.016V666.555H225.46V663.016H217.069ZM236.426 650.266C236.402 655.586 235.887 660.367 233.168 664.586L230.848 663.367C233.039 660.051 233.695 656.816 233.848 652.68H231.551V650.266H236.426ZM241.207 650.266C241.195 652.141 241.16 654.004 240.996 655.82H242.824V648.297H245.637V668.219H242.824V658.234H240.691C240.234 660.848 239.426 663.355 237.949 665.664L235.676 664.398C238.055 660.766 238.547 657.004 238.652 652.68H237.035V650.266H241.207ZM249.832 647.828V669.156H246.973V647.828H249.832ZM263.092 649.328C265.975 649.328 268.119 651.707 268.553 655.539H272.256V647.828H275.209V669.203H272.256V657.93H268.576C268.26 662.031 266.068 664.539 263.092 664.539C259.858 664.539 257.537 661.609 257.561 656.922C257.537 652.281 259.858 649.328 263.092 649.328ZM263.092 652.023C261.498 652.023 260.397 653.758 260.42 656.922C260.397 660.109 261.498 661.82 263.092 661.82C264.709 661.82 265.764 660.109 265.764 656.922C265.764 653.758 264.709 652.023 263.092 652.023ZM296.558 666.391V668.781H281.159V661.961H284.159V666.391H296.558ZM295.995 647.852V663.273H293.066V655.867H290.113V653.477H293.066V647.852H295.995ZM283.761 649.422V651.836H281.089V657.859C282.038 657.801 282.917 657.707 283.902 657.484L284.136 659.898C282.448 660.273 281.113 660.25 279.214 660.25H278.183V649.422H283.761ZM290.792 649.422V651.836H287.769V657.859C289.28 657.824 290.218 657.719 291.284 657.461L291.542 659.875C290.019 660.227 288.753 660.25 285.964 660.25H284.792V649.422H290.792ZM321.841 647.828V658.516H318.865V654.789H315.021V652.375H318.865V647.828H321.841ZM314.763 648.602C314.763 654.18 311.412 657.578 305.13 659.078L304.146 656.711C308.798 655.68 311.107 653.605 311.552 651.016H305.318V648.602H314.763ZM321.841 659.336V665.172H310.685V666.578H322.31V668.945H307.685V662.969H318.841V661.68H307.662V659.336H321.841ZM335.781 649.328C337.691 649.328 339.285 650.383 340.258 652.211H344.945V647.828H347.898V669.203H344.945V661.211H340.492C339.531 663.32 337.843 664.539 335.781 664.539C332.547 664.539 330.226 661.609 330.25 656.922C330.226 652.281 332.547 649.328 335.781 649.328ZM335.781 652.023C334.187 652.023 333.086 653.758 333.109 656.922C333.086 660.109 334.187 661.82 335.781 661.82C337.398 661.82 338.453 660.109 338.453 656.922C338.453 653.758 337.398 652.023 335.781 652.023ZM341.101 654.625C341.23 655.328 341.312 656.102 341.312 656.922C341.312 657.59 341.254 658.223 341.172 658.82H344.945V654.625H341.101ZM357.341 648.883V651.25H356.122C356.122 652.551 356.532 654.086 357.692 655.234C358.817 654.086 359.227 652.551 359.239 651.25H358.044V648.883H364.161V651.25H362.075C362.098 652.984 362.919 654.824 364.934 655.82L363.552 657.93C362.122 657.285 361.196 656.172 360.645 654.859C360.141 656.301 359.227 657.555 357.669 658.281C356.145 657.566 355.231 656.336 354.716 654.93C354.177 656.266 353.262 657.402 351.833 658.07L350.45 655.938C352.442 654.918 353.262 652.984 353.286 651.25H351.036V648.883H357.341ZM368.848 647.852V669.156H365.848V664.984H361.395V662.617H365.848V647.852H368.848ZM350.427 659.242C354.552 659.242 359.942 659.195 364.7 658.516L364.981 660.695C363.059 661.035 361.067 661.258 359.122 661.398V668.523H356.122V661.586C354.212 661.668 352.395 661.691 350.778 661.703L350.427 659.242ZM375.127 649.516V652.188H380.025V649.516H383.025V659.336H379.111V662.57C380.764 662.488 382.416 662.359 383.963 662.148L384.174 664.328C379.721 665.125 374.916 665.148 371.283 665.148L370.885 662.711C372.455 662.699 374.248 662.699 376.135 662.664V659.336H372.197V649.516H375.127ZM375.127 656.992H380.025V654.461H375.127V656.992ZM388.088 647.828V656.359H390.994V658.844H388.088V669.156H385.088V647.828H388.088ZM397.507 649.328C400.765 649.328 403.108 652.281 403.132 656.922C403.108 661.609 400.765 664.539 397.507 664.539C394.249 664.539 391.858 661.609 391.882 656.922C391.858 652.281 394.249 649.328 397.507 649.328ZM397.507 652.023C395.866 652.023 394.765 653.758 394.765 656.922C394.765 660.109 395.866 661.82 397.507 661.82C399.171 661.82 400.249 660.109 400.273 656.922C400.249 653.758 399.171 652.023 397.507 652.023ZM411.616 652.773V655.281H408.593V659.078H411.616V661.516H408.593V669.156H405.593V647.828H408.593V652.773H411.616ZM434.72 647.781V652.422H437.603V654.812H434.72V659.336H431.72V647.781H434.72ZM434.72 660.203V665.594H423.54V666.812H435.329V669.016H420.611V663.555H431.743V662.359H420.564V660.203H434.72ZM430.454 649.422V651.695H417.798V649.422H422.65V647.688H425.626V649.422H430.454ZM424.126 652.211C427.314 652.211 429.376 653.57 429.376 655.703C429.376 657.883 427.314 659.195 424.126 659.195C420.939 659.195 418.829 657.883 418.829 655.703C418.829 653.57 420.939 652.211 424.126 652.211ZM424.126 654.32C422.65 654.32 421.736 654.812 421.759 655.703C421.736 656.617 422.65 657.062 424.126 657.062C425.603 657.062 426.54 656.617 426.54 655.703C426.54 654.812 425.603 654.32 424.126 654.32ZM455.506 647.828V656.195H458.342V658.656H455.506V669.156H452.506V647.828H455.506ZM444.795 650.008C444.772 655.867 444.162 660.438 440.342 664.633L437.998 662.969C440.905 659.828 441.748 656.699 441.936 652.445H438.936V650.008H444.795ZM450.702 650.008C450.702 656.102 450.162 661.375 446.389 666.016L444.022 664.352C446.916 660.789 447.702 657.133 447.889 652.445H445.498V650.008H450.702ZM462.769 661.656C462.792 658.75 463.566 657.836 464.972 656.969C465.98 656.312 466.753 655.586 466.753 654.508C466.753 653.336 465.839 652.562 464.714 652.562C463.613 652.562 462.605 653.289 462.558 654.672H459.23C459.3 651.367 461.738 649.797 464.738 649.797C467.996 649.797 470.316 651.508 470.316 654.391C470.316 656.312 469.332 657.555 467.785 658.469C466.472 659.266 465.886 660.016 465.863 661.656V661.914H462.769V661.656ZM464.386 667.211C463.285 667.211 462.394 666.32 462.417 665.242C462.394 664.164 463.285 663.297 464.386 663.297C465.417 663.297 466.332 664.164 466.332 665.242C466.332 666.32 465.417 667.211 464.386 667.211Z" fill="#CACACA"/>
<g clip-path="url(#clip1_171_5358)">
<rect x="580" y="296" width="280" height="280" rx="140" fill="white"/>
<path d="M724.649 394.211C722.338 392.611 719.849 396.188 722.16 397.811C724.471 399.411 726.96 395.833 724.649 394.211Z" fill="#393432"/>
<path d="M859.312 417.756L858.867 418.978C847.845 412.111 835.623 412.245 822.667 416.645L821.09 415.622C819.334 403.867 811.112 394.822 797.623 387.956L818.201 354.311C828.867 359.622 836.312 368.578 838.979 382.889C846.734 380.356 853.334 380.178 859.356 382.511" stroke="#393432" stroke-width="1.11111" stroke-linecap="round" stroke-linejoin="round"/>
<path d="M821.959 416.178C822.07 415.845 838.937 382.867 838.937 382.867" stroke="#393432" stroke-width="1.11111" stroke-linecap="round" stroke-linejoin="round"/>
<path d="M797.601 387.934L796.468 393.045C796.312 393.756 796.645 394.445 797.29 394.756C805.734 398.934 813.579 406.356 821.068 415.6" stroke="#393432" stroke-width="1.11111" stroke-linecap="round" stroke-linejoin="round"/>
<path d="M822.664 416.622C834.642 416.578 844.086 419.089 855.242 423.356C855.82 423.578 856.509 423.356 856.797 422.8L858.886 418.956" stroke="#393432" stroke-width="1.11111" stroke-linecap="round" stroke-linejoin="round"/>
<path d="M819.489 358.222L812.045 370.244C816.134 371.556 819.445 375.244 821.289 378.022L828.8 367.689C826.378 363.555 823.578 360.422 819.467 358.222H819.489Z" stroke="#393432" stroke-width="1.11111" stroke-linecap="round" stroke-linejoin="round"/>
<path d="M829.936 371.556C833.047 374.911 834.38 377.6 835.824 382.4" stroke="#393432" stroke-width="1.11111" stroke-linecap="round" stroke-linejoin="round"/>
<path d="M827.137 376.355C830.403 379.444 831.692 382.133 833.181 386.622" stroke="#393432" stroke-width="1.11111" stroke-linecap="round" stroke-linejoin="round"/>
<path d="M823.555 380.733C827.021 383.844 828.31 386.577 829.599 391.066" stroke="#393432" stroke-width="1.11111" stroke-linecap="round" stroke-linejoin="round"/>
<path d="M810.578 376.978C817.489 381.178 822.778 387.733 826.734 396.267" stroke="#393432" stroke-width="1.11111" stroke-linecap="round" stroke-linejoin="round"/>
<path d="M805.912 382.4C813.423 386.422 818.779 392.689 822.445 400.667" stroke="#393432" stroke-width="1.11111" stroke-linecap="round" stroke-linejoin="round"/>
<path d="M840.756 385.756C845.734 383.845 852.711 384.822 859.311 386.556" stroke="#393432" stroke-width="1.11111" stroke-linecap="round" stroke-linejoin="round"/>
<path d="M838.49 390.289C844.112 388.578 853.357 388.866 859.335 391.422" stroke="#393432" stroke-width="1.11111" stroke-linecap="round" stroke-linejoin="round"/>
<path d="M836.332 394.933C842.532 393.2 852.354 394.133 859.31 396.178" stroke="#393432" stroke-width="1.11111" stroke-linecap="round" stroke-linejoin="round"/>
<path d="M833.711 400.6C840.311 398.289 852.289 399.378 859.311 402.778" stroke="#393432" stroke-width="1.11111" stroke-linecap="round" stroke-linejoin="round"/>
<path d="M830.801 406.822C838.401 404.489 850.467 406.578 859.312 410.822" stroke="#393432" stroke-width="1.11111" stroke-linecap="round" stroke-linejoin="round"/>
<path d="M843.601 514.665C841.339 507.699 834.169 500.452 826.552 498.484C815.3 495.576 803.856 501.845 800.068 512.594C789.036 511.052 778.385 517.985 775.532 529.022C773.43 537.155 776.124 545.379 781.827 550.755C781.629 551.347 781.43 551.938 781.269 552.562C780.118 557.016 780.405 561.497 781.839 565.54" stroke="#393432" stroke-width="1.11111" stroke-miterlimit="10"/>
<path d="M641.902 373.601C636.146 372.423 631.413 368.356 629.368 362.845C627.968 359.067 627.968 354.912 629.368 351.134L631.702 344.778L633.102 335.601C633.346 334.067 635.035 333.245 636.391 334.001L643.902 338.223C644.791 338.734 645.857 338.778 646.813 338.401L659.702 333.045C660.546 332.689 661.191 331.978 661.457 331.112L664.102 322.356C664.546 320.889 666.302 320.312 667.546 321.201L675.124 326.712L681.279 329.534C684.946 331.201 687.879 334.134 689.591 337.778C692.079 343.112 691.635 349.334 688.413 354.245C685.146 359.223 680.457 363.112 674.968 365.401L659.346 371.889C653.835 374.178 647.791 374.756 641.946 373.578L641.902 373.601Z" stroke="#393432" stroke-width="1.11111" stroke-miterlimit="10"/>
<path d="M633.348 357.4L643.57 356.823" stroke="#393432" stroke-width="1.11111" stroke-linecap="round" stroke-linejoin="round"/>
<path d="M637.035 367.49L645.48 361.69" stroke="#393432" stroke-width="1.11111" stroke-linecap="round" stroke-linejoin="round"/>
<path d="M681.657 337.978L674.102 344.889" stroke="#393432" stroke-width="1.11111" stroke-linecap="round" stroke-linejoin="round"/>
<path d="M686.837 346.912L676.992 349.778" stroke="#393432" stroke-width="1.11111" stroke-linecap="round" stroke-linejoin="round"/>
<path d="M651.168 354.023C652.211 354.023 653.057 353.177 653.057 352.134C653.057 351.091 652.211 350.245 651.168 350.245C650.125 350.245 649.279 351.091 649.279 352.134C649.279 353.177 650.125 354.023 651.168 354.023Z" fill="#393432"/>
<path d="M665.326 348.489C666.37 348.489 667.215 347.644 667.215 346.6C667.215 345.557 666.37 344.711 665.326 344.711C664.283 344.711 663.438 345.557 663.438 346.6C663.438 347.644 664.283 348.489 665.326 348.489Z" fill="#393432"/>
<path d="M659.746 359.823L660.924 355.601L664.613 357.578" stroke="#393432" stroke-width="1.11111" stroke-linecap="round" stroke-linejoin="round"/>
<path d="M733.363 367.255C729.54 373.788 726.496 380.744 724.274 387.988C723.763 389.633 726.34 390.344 726.852 388.699C729.007 381.677 731.963 374.944 735.652 368.611C736.518 367.122 734.207 365.788 733.34 367.255H733.363Z" fill="#393432"/>
<path d="M732.668 516.097C758.081 484.893 753.387 438.996 722.183 413.583C690.979 388.169 645.082 392.864 619.669 424.068C594.256 455.272 598.95 501.169 630.154 526.582C661.358 551.995 707.255 547.301 732.668 516.097Z" fill="#FFC20E"/>
<path d="M603.533 504.334C597.977 494.623 594.622 483.667 593.955 471.823" stroke="#393432" stroke-width="2.22222" stroke-linecap="round" stroke-linejoin="round"/>
<path d="M660.935 541.733C651.868 540.845 643.535 538.422 635.713 534.578" stroke="#393432" stroke-width="2.22222" stroke-linecap="round" stroke-linejoin="round"/>
<path d="M732.244 506.089C725.755 516.8 716.8 525.667 705.955 531.956" stroke="#393432" stroke-width="2.22222" stroke-linecap="round" stroke-linejoin="round"/>
<path d="M608.092 423.645C621.647 405.022 643.625 392.934 668.403 392.934C706.114 392.934 737.292 420.934 742.292 457.267" stroke="#393432" stroke-width="2.22222" stroke-linecap="round" stroke-linejoin="round"/>
<path d="M720.801 507.6C761.579 502.534 799.29 495.267 831.534 484.089C840.623 479.934 842.356 475.067 836.867 469.489C840.912 462.911 839.623 458.978 832.956 457.734C838.156 450.711 833.645 446.267 821.579 446.556C813.423 431.134 808.49 425.222 803.379 445.622C781.467 452.489 753.934 456.378 724.29 459.156" stroke="#393432" stroke-width="2.22222" stroke-linecap="round" stroke-linejoin="round"/>
<path d="M603.891 479.4C570.891 454.911 541.646 430.022 519.068 404.422C513.202 396.333 514.091 391.245 521.602 389.067C521.313 381.333 524.379 378.556 530.802 380.756C529.735 372.089 535.846 370.445 546.202 376.645C560.913 367.245 568.091 364.511 562.491 384.778C578.202 401.533 600.224 418.489 624.668 435.511" stroke="#393432" stroke-width="2.22222" stroke-linecap="round" stroke-linejoin="round"/>
<path d="M660.935 541.733C657.89 563.356 656.157 584.044 656.135 603.533C656.135 606.133 658.09 608.333 660.668 608.689L708.001 615.111C712.468 615.711 715.557 610.756 713.046 607.022L703.89 593.4L705.957 531.978" stroke="#393432" stroke-width="2.22222" stroke-linecap="round" stroke-linejoin="round"/>
<path d="M635.712 534.578C621.935 553.622 607.824 570.933 593.29 585.867C591.468 587.733 588.535 587.933 586.446 586.4L548.068 557.955C544.446 555.267 545.69 549.555 550.112 548.644L566.179 545.289L603.512 504.355" stroke="#393432" stroke-width="2.22222" stroke-linecap="round" stroke-linejoin="round"/>
<path d="M663.422 432.511C665.153 432.511 666.556 431.108 666.556 429.378C666.556 427.647 665.153 426.245 663.422 426.245C661.692 426.245 660.289 427.647 660.289 429.378C660.289 431.108 661.692 432.511 663.422 432.511Z" fill="#393432"/>
<path d="M691.335 434.8C691.335 436.533 689.935 437.933 688.202 437.933C686.468 437.933 685.068 436.533 685.068 434.8C685.068 433.067 686.468 431.667 688.202 431.667C689.935 431.667 691.335 433.067 691.335 434.8Z" fill="#393432"/>
<path d="M681.336 439.667C681.092 439.556 680.847 439.511 680.603 439.511C680.514 439.467 680.425 439.4 680.336 439.378C675.069 438.444 669.803 437.622 664.514 436.889C663.736 436.778 662.825 437.067 662.647 437.956C661.981 441.044 663.625 444.4 665.003 447.067C666.203 449.378 667.981 452.911 671.136 452.467C672.625 452.267 673.758 451.222 674.825 450.244C676.047 449.111 677.269 448 678.492 446.867C679.647 445.8 681.047 444.778 682.003 443.533C682.892 442.333 682.847 440.4 681.358 439.689L681.336 439.667ZM677.669 443.467C676.781 444.289 675.869 445.111 674.981 445.933C674.114 446.711 673.269 447.511 672.403 448.289C671.936 448.711 671.181 449.578 670.447 449.422C669.803 449.289 669.314 448.4 668.981 447.889C668.381 446.933 667.825 445.956 667.314 444.956C666.825 443.978 666.403 442.956 666.047 441.911C665.847 441.311 665.647 440.711 665.536 440.067C670.025 440.711 674.514 441.422 678.981 442.2C678.536 442.622 678.092 443.022 677.625 443.444L677.669 443.467Z" fill="#393432"/>
</g>
<path d="M670.99 616.898H665.19C665.377 617.414 665.748 617.898 666.303 618.352C666.865 618.797 667.619 619.18 668.565 619.5C669.51 619.82 670.623 620.039 671.904 620.156L670.85 622.5C668.881 622.305 667.225 621.859 665.881 621.164C664.537 620.469 663.576 619.594 662.998 618.539C662.412 619.594 661.451 620.469 660.115 621.164C658.787 621.859 657.147 622.305 655.193 622.5L654.139 620.156C655.412 620.039 656.518 619.82 657.455 619.5C658.4 619.18 659.154 618.797 659.717 618.352C660.279 617.898 660.65 617.414 660.83 616.898H655.076V614.531H670.99V616.898ZM664.475 623.812H672.748V626.18H653.295V623.812H661.522V621.305H664.475V623.812ZM670.428 634.922H655.545V627.797H670.428V634.922ZM658.498 632.531H667.498V630.164H658.498V632.531ZM690.063 618.141H683.36V627.609C684.993 627.594 686.407 627.539 687.602 627.445C688.805 627.352 690.008 627.195 691.211 626.977L691.516 629.391C690.219 629.641 688.918 629.812 687.614 629.906C686.317 630 684.766 630.047 682.961 630.047H682.071H680.336V615.703H690.063V618.141ZM697.352 635.203H694.375V623.648H689.008V621.211H694.375V613.828H697.352V635.203ZM722.284 619.805H725.167V622.266H722.284V629.109H719.26V613.828H722.284V619.805ZM716.471 615.422C716.471 617.328 716.081 619.047 715.299 620.578C714.526 622.102 713.393 623.406 711.901 624.492C710.409 625.578 708.596 626.422 706.463 627.023L705.221 624.656C707.573 624 709.424 623.082 710.776 621.902C712.135 620.723 712.936 619.375 713.178 617.859H706.159V615.422H716.471ZM723.01 634.781H708.409V627.539H711.432V632.391H723.01V634.781ZM743.961 629.531H740.984V624.281H738.265V621.82H740.984V619.969H738.265V617.578H740.984V613.828H743.961V629.531ZM737.89 617.742H736.133V624.223C736.718 624.176 737.414 624.109 738.218 624.023L738.336 626.203C736.554 626.5 734.64 626.699 732.593 626.801C730.547 626.902 728.445 626.953 726.289 626.953L725.984 624.516C726.437 624.516 727.195 624.508 728.258 624.492V617.742H726.523V615.352H737.89V617.742ZM744.476 634.781H729.781V628.359H732.781V632.391H744.476V634.781ZM731.14 624.445C731.851 624.43 732.562 624.406 733.273 624.375V617.742H731.14V624.445ZM763.434 622.172H766.575V624.633H763.434V635.156H760.481V613.828H763.434V622.172ZM759.028 619.406H746.489V617.016H751.317V614.156H754.317V617.016H759.028V619.406ZM752.817 620.602C753.848 620.602 754.774 620.82 755.595 621.258C756.423 621.688 757.071 622.289 757.54 623.062C758.016 623.836 758.255 624.711 758.255 625.688C758.255 626.664 758.016 627.539 757.54 628.312C757.071 629.086 756.423 629.691 755.595 630.129C754.774 630.559 753.848 630.773 752.817 630.773C751.778 630.773 750.845 630.559 750.016 630.129C749.188 629.691 748.536 629.086 748.059 628.312C747.591 627.539 747.356 626.664 747.356 625.688C747.356 624.711 747.591 623.836 748.059 623.062C748.536 622.289 749.188 621.688 750.016 621.258C750.845 620.82 751.778 620.602 752.817 620.602ZM752.817 623.016C752.317 623.023 751.868 623.137 751.47 623.355C751.079 623.574 750.77 623.883 750.544 624.281C750.325 624.68 750.216 625.148 750.216 625.688C750.216 626.234 750.325 626.707 750.544 627.105C750.77 627.504 751.079 627.809 751.47 628.02C751.868 628.223 752.317 628.32 752.817 628.312C753.317 628.32 753.762 628.223 754.153 628.02C754.544 627.809 754.848 627.504 755.067 627.105C755.286 626.707 755.395 626.234 755.395 625.688C755.395 625.148 755.286 624.68 755.067 624.281C754.848 623.883 754.544 623.574 754.153 623.355C753.762 623.137 753.317 623.023 752.817 623.016ZM784.807 617.695C784.807 618.906 784.791 619.965 784.76 620.871C784.736 621.77 784.658 622.816 784.525 624.012C784.4 625.199 784.205 626.492 783.939 627.891L780.939 627.586C781.299 625.805 781.529 624.203 781.631 622.781C781.732 621.359 781.791 619.781 781.807 618.047H769.244V615.68H784.807V617.695ZM786.682 632.555H767.228V630.117H774.189V622.781H777.166V630.117H786.682V632.555ZM646.748 655.703H648.905V658.188H646.748V669.156H643.795V647.828H646.748V655.703ZM631.678 654.695H633.037V649.75H635.475V664.234H629.217V649.75H631.678V654.695ZM633.037 661.773V657.062H631.678V661.773H633.037ZM638.756 654.695H640.139V649.75H642.577V664.234H636.342V649.75H638.756V654.695ZM640.139 661.773V657.062H638.756V661.773H640.139ZM669.175 661.75H649.652V659.359H669.175V661.75ZM667.277 668.781H652.113V662.922H655.113V666.391H667.277V668.781ZM666.808 654.203H655.066V655.727H667.207V657.977H652.089V652.07H663.808V650.617H652.042V648.32H666.808V654.203ZM683.49 651.18C683.49 652.062 683.666 652.906 684.017 653.711C684.369 654.508 684.908 655.223 685.635 655.855C686.369 656.48 687.279 656.961 688.365 657.297L686.771 659.617C685.662 659.25 684.709 658.719 683.912 658.023C683.115 657.328 682.482 656.504 682.013 655.551C681.537 656.652 680.877 657.605 680.033 658.41C679.197 659.207 678.185 659.805 676.998 660.203L675.381 657.859C676.529 657.477 677.482 656.93 678.24 656.219C678.998 655.508 679.56 654.699 679.927 653.793C680.295 652.879 680.482 651.914 680.49 650.898V648.953H683.49V651.18ZM692.631 652.82H695.513V655.305H692.631V660.484H689.631V647.828H692.631V652.82ZM685.646 660.906C687.115 660.906 688.388 661.07 689.467 661.398C690.545 661.727 691.377 662.199 691.963 662.816C692.549 663.434 692.842 664.172 692.842 665.031C692.842 665.898 692.549 666.641 691.963 667.258C691.385 667.875 690.552 668.344 689.467 668.664C688.388 668.992 687.115 669.156 685.646 669.156C684.146 669.156 682.845 668.992 681.744 668.664C680.65 668.344 679.806 667.875 679.213 667.258C678.627 666.641 678.334 665.898 678.334 665.031C678.334 664.172 678.627 663.434 679.213 662.816C679.806 662.199 680.654 661.727 681.756 661.398C682.857 661.07 684.154 660.906 685.646 660.906ZM685.646 663.25C684.232 663.25 683.158 663.402 682.424 663.707C681.689 664.004 681.326 664.445 681.334 665.031C681.31 666.219 682.748 666.812 685.646 666.812C688.474 666.812 689.888 666.219 689.888 665.031C689.888 664.445 689.525 664.004 688.799 663.707C688.08 663.402 687.029 663.25 685.646 663.25ZM713.253 652.633H716.136V655.094H713.253V659.805H710.253V647.828H713.253V652.633ZM706.667 651.531H700.151V656.617C702.128 656.602 703.722 656.551 704.932 656.465C706.151 656.371 707.347 656.203 708.518 655.961L708.823 658.305C707.557 658.594 706.229 658.785 704.839 658.879C703.456 658.965 701.495 659.008 698.956 659.008H697.151V649.164H706.667V651.531ZM713.253 668.898H699.307V660.695H713.253V668.898ZM702.261 666.555H710.3V663.062H702.261V666.555ZM726.68 648.133C728.312 648.133 729.707 648.273 730.863 648.555C732.02 648.836 732.902 649.25 733.512 649.797C734.121 650.336 734.43 650.992 734.438 651.766C734.43 652.547 734.121 653.211 733.512 653.758C732.902 654.305 732.02 654.719 730.863 655C729.707 655.281 728.312 655.422 726.68 655.422C725.039 655.422 723.637 655.281 722.473 655C721.309 654.719 720.422 654.305 719.812 653.758C719.203 653.211 718.898 652.547 718.898 651.766C718.898 650.992 719.203 650.336 719.812 649.797C720.422 649.25 721.309 648.836 722.473 648.555C723.637 648.273 725.039 648.133 726.68 648.133ZM726.68 650.312C725.125 650.312 723.957 650.438 723.176 650.688C722.402 650.93 722.023 651.289 722.039 651.766C722.031 652.281 722.402 652.652 723.152 652.879C723.902 653.105 725.078 653.219 726.68 653.219C728.289 653.219 729.469 653.105 730.219 652.879C730.969 652.652 731.344 652.281 731.344 651.766C731.344 651.289 730.957 650.93 730.184 650.688C729.41 650.438 728.242 650.312 726.68 650.312ZM736.406 658.797H716.953V656.43H736.406V658.797ZM734.039 665.477H722.156V666.766H734.602V669.016H719.227V663.391H731.086V662.219H719.203V660.039H734.039V665.477ZM761.057 663.953H758.057V662.266H753.979V660.227H758.057V647.852H761.057V663.953ZM761.526 668.781H745.635V662.406H748.612V659.57C747.158 659.633 745.377 659.664 743.268 659.664L742.916 657.297C745.666 657.281 748.139 657.234 750.334 657.156C752.53 657.078 754.619 656.914 756.604 656.664L756.768 658.797C755.143 659.07 753.424 659.273 751.612 659.406V663.461H748.612V666.391H761.526V668.781ZM749.854 648.578C750.877 648.57 751.791 648.727 752.596 649.047C753.401 649.367 754.03 649.82 754.483 650.406C754.944 650.984 755.174 651.648 755.174 652.398C755.174 653.141 754.948 653.797 754.494 654.367C754.041 654.938 753.408 655.379 752.596 655.691C751.791 655.996 750.877 656.148 749.854 656.148C748.807 656.148 747.877 655.996 747.065 655.691C746.252 655.379 745.619 654.941 745.166 654.379C744.713 653.809 744.487 653.148 744.487 652.398C744.487 651.648 744.709 650.984 745.155 650.406C745.608 649.82 746.24 649.367 747.053 649.047C747.873 648.727 748.807 648.57 749.854 648.578ZM749.854 650.758C749.08 650.758 748.463 650.902 748.002 651.191C747.541 651.48 747.315 651.883 747.323 652.398C747.315 652.906 747.537 653.301 747.99 653.582C748.451 653.855 749.073 653.992 749.854 653.992C750.588 653.992 751.182 653.852 751.635 653.57C752.096 653.289 752.33 652.898 752.338 652.398C752.33 651.883 752.096 651.48 751.635 651.191C751.182 650.902 750.588 650.758 749.854 650.758ZM773.898 653.453H763.585V651.086H767.288V648.414H770.242V651.086H773.898V653.453ZM768.788 654.414C769.687 654.414 770.488 654.633 771.191 655.07C771.902 655.5 772.456 656.098 772.855 656.863C773.261 657.629 773.468 658.5 773.476 659.477C773.468 660.453 773.261 661.328 772.855 662.102C772.456 662.875 771.902 663.48 771.191 663.918C770.488 664.348 769.687 664.562 768.788 664.562C767.89 664.562 767.081 664.348 766.363 663.918C765.652 663.48 765.093 662.875 764.687 662.102C764.281 661.328 764.077 660.453 764.077 659.477C764.077 658.508 764.281 657.641 764.687 656.875C765.093 656.102 765.652 655.5 766.363 655.07C767.081 654.633 767.89 654.414 768.788 654.414ZM768.788 656.898C768.156 656.898 767.648 657.129 767.265 657.59C766.89 658.051 766.702 658.68 766.702 659.477C766.702 660.273 766.89 660.898 767.265 661.352C767.648 661.805 768.156 662.031 768.788 662.031C769.398 662.031 769.89 661.805 770.265 661.352C770.648 660.898 770.843 660.273 770.851 659.477C770.843 658.68 770.648 658.051 770.265 657.59C769.89 657.129 769.398 656.898 768.788 656.898ZM782.054 669.156H779.218V658.891H777.484V668.242H774.695V648.25H777.484V656.5H779.218V647.828H782.054V669.156ZM803.754 666.672H784.231V664.211H788.59V658.996C787.747 658.488 787.094 657.863 786.633 657.121C786.172 656.371 785.942 655.531 785.942 654.602C785.942 653.469 786.286 652.469 786.973 651.602C787.661 650.734 788.61 650.062 789.821 649.586C791.04 649.102 792.418 648.859 793.957 648.859C795.489 648.859 796.86 649.102 798.071 649.586C799.29 650.062 800.247 650.734 800.942 651.602C801.637 652.469 801.989 653.469 801.997 654.602C801.989 655.508 801.758 656.332 801.305 657.074C800.86 657.809 800.231 658.43 799.418 658.938V664.211H803.754V666.672ZM793.957 651.227C792.942 651.227 792.051 651.359 791.286 651.625C790.528 651.891 789.938 652.277 789.516 652.785C789.102 653.285 788.895 653.891 788.895 654.602C788.895 655.289 789.102 655.887 789.516 656.395C789.938 656.902 790.532 657.293 791.297 657.566C792.063 657.84 792.95 657.977 793.957 657.977C794.957 657.977 795.84 657.84 796.606 657.566C797.372 657.293 797.965 656.902 798.387 656.395C798.817 655.887 799.036 655.289 799.043 654.602C799.036 653.898 798.821 653.293 798.399 652.785C797.977 652.277 797.383 651.891 796.618 651.625C795.852 651.359 794.965 651.227 793.957 651.227ZM796.395 664.211V660.074C795.59 660.223 794.778 660.297 793.957 660.297C793.082 660.297 792.278 660.223 791.543 660.074V664.211H796.395ZM809.4 661.914H806.4L806.095 650.031H809.705L809.4 661.914ZM807.923 667.211C807.564 667.211 807.232 667.121 806.927 666.941C806.623 666.762 806.38 666.523 806.201 666.227C806.029 665.922 805.947 665.594 805.955 665.242C805.947 664.891 806.029 664.566 806.201 664.27C806.38 663.973 806.623 663.738 806.927 663.566C807.232 663.387 807.564 663.297 807.923 663.297C808.259 663.297 808.576 663.387 808.873 663.566C809.177 663.738 809.42 663.973 809.599 664.27C809.779 664.566 809.869 664.891 809.869 665.242C809.869 665.594 809.779 665.922 809.599 666.227C809.42 666.523 809.177 666.762 808.873 666.941C808.576 667.121 808.259 667.211 807.923 667.211Z" fill="#CACACA"/>
<g clip-path="url(#clip2_171_5358)">
<rect x="980" y="296" width="280" height="280" rx="140" fill="white"/>
<path d="M1269.34 306.812L990.812 285.967L969.967 564.499L1248.5 585.344L1269.34 306.812Z" fill="white"/>
<path d="M1213.02 365.938C1214.22 349.816 1200.81 335.661 1183.07 334.334C1165.33 333.006 1149.96 345.007 1148.76 361.129C1147.9 372.591 1154.45 383.057 1164.69 388.623L1165.36 396.269C1165.62 398.934 1168.65 400.332 1170.84 398.796L1178.42 393.468L1179.42 392.786C1196.88 393.753 1211.83 381.872 1213.01 365.976L1213.02 365.938Z" stroke="#383432" stroke-width="3.42933" stroke-miterlimit="10"/>
<path d="M1165.18 360.826C1162.13 360.598 1161.78 365.333 1164.82 365.56C1167.86 365.788 1168.22 361.054 1165.18 360.826Z" fill="#383432"/>
<path d="M1176.29 360.826C1173.25 360.598 1172.89 365.333 1175.94 365.56C1178.98 365.788 1179.33 361.054 1176.29 360.826Z" fill="#383432"/>
<path d="M1187.4 360.826C1184.36 360.598 1184.01 365.333 1187.05 365.56C1190.09 365.788 1190.45 361.054 1187.4 360.826Z" fill="#383432"/>
<path d="M1198.52 360.826C1195.48 360.598 1195.12 365.333 1198.16 365.56C1201.21 365.788 1201.56 361.054 1198.52 360.826Z" fill="#383432"/>
<path d="M1198.97 504.826C1208.34 464.419 1183.19 424.064 1142.78 414.691C1102.37 405.318 1062.02 430.476 1052.64 470.883C1043.27 511.29 1068.43 551.644 1108.84 561.018C1149.24 570.391 1189.6 545.233 1198.97 504.826Z" fill="#FFC20E"/>
<path d="M1115.87 559.744C1157.74 562.877 1194.21 531.482 1197.34 489.619C1200.48 447.755 1169.08 411.28 1127.22 408.147C1085.35 405.014 1048.88 436.409 1045.75 478.273C1045.52 481.242 1045.49 484.187 1045.58 487.066L1046.18 494.707" stroke="#393433" stroke-width="2.2611" stroke-miterlimit="10" stroke-linecap="round"/>
<path d="M1053.91 516.633C1053.63 516.071 1052.95 515.838 1052.39 516.111C1051.83 516.385 1051.6 517.062 1051.87 517.623L1053.91 516.633ZM1057.89 523.475C1056.5 521.287 1055.02 518.92 1053.91 516.633L1051.87 517.623C1053.05 520.042 1054.6 522.512 1055.99 524.687L1057.89 523.475Z" fill="#393433"/>
<path d="M1079.58 513.494L1081.05 504.422C1081.84 499.454 1084.23 494.759 1088.1 491.534C1093.1 487.41 1098.95 486.904 1105.92 491.28C1110.03 493.893 1112.03 495.441 1114.51 499.67" stroke="#393433" stroke-width="2.2611" stroke-miterlimit="10"/>
<path d="M1115.87 559.745L1065.47 555.595C1063.48 555.446 1062.64 553.002 1063.96 551.514L1075.6 538.402L1077.54 534.202" stroke="#393433" stroke-width="2.2611" stroke-miterlimit="10"/>
<path d="M1082 556.945L1045.19 553.926C1043.09 553.768 1042.1 551.276 1043.46 549.715L1054.9 536.815L1060.34 502.984C1061.17 497.907 1063.64 493.179 1067.66 489.966C1074.22 484.712 1081.02 486.128 1087.98 491.637" stroke="#393433" stroke-width="2.2611" stroke-miterlimit="10"/>
<path d="M1166.99 463.539C1149.1 481.398 1127.15 494.531 1104.03 504.478C1099.54 506.409 1094.98 508.222 1090.39 509.957C1085.84 511.658 1080.7 512.784 1076.35 514.877C1069.64 518.079 1071.83 524.251 1076.53 527.513C1077.4 528.107 1077.89 529.126 1077.69 530.17C1076.61 536.626 1079.46 540.392 1083.94 541.105C1085.44 541.33 1086.47 542.655 1086.25 544.15C1085.79 547.252 1086.53 548.516 1091.33 549.405C1126 555.854 1156.37 531.787 1177.76 507.464" stroke="#393433" stroke-width="2.2611" stroke-miterlimit="10" stroke-linecap="round"/>
<path d="M1083.64 443.62C1083.5 445.461 1081.92 446.817 1080.08 446.679C1078.24 446.542 1076.88 444.967 1077.02 443.125C1077.16 441.284 1078.73 439.929 1080.58 440.066C1082.42 440.204 1083.77 441.779 1083.64 443.62Z" fill="#393433"/>
<path d="M1107.03 442.083C1106.89 443.924 1105.32 445.28 1103.48 445.142C1101.64 445.005 1100.28 443.429 1100.42 441.588C1100.56 439.747 1102.13 438.391 1103.97 438.529C1105.81 438.667 1107.17 440.242 1107.03 442.083Z" fill="#393433"/>
<g clip-path="url(#clip3_171_5358)">
<path d="M1083.57 459.83C1083.75 459.57 1084.15 459.31 1084.44 459.2C1084.47 459.19 1084.53 459.16 1084.56 459.16C1084.21 459.23 1084.65 459.24 1084.87 459.35C1085.91 459.85 1086.94 460.29 1088.12 460.14C1089.08 460.02 1089.91 459.57 1090.68 459C1091.12 458.67 1091.94 457.81 1092.49 457.75C1093.04 457.69 1093.82 458.45 1094.28 458.73C1095.24 459.32 1096.3 459.71 1097.44 459.52C1099.45 459.18 1100.92 456.94 1102.92 458.57C1103.7 459.21 1104.8 459.34 1105.57 458.57C1106.23 457.91 1106.36 456.56 1105.57 455.92C1103.19 453.98 1100.58 453.69 1097.9 455.25C1097.62 455.41 1097.29 455.69 1096.97 455.8C1096.69 455.9 1097.02 455.93 1096.63 455.77C1096.24 455.61 1095.88 455.3 1095.53 455.07C1094.46 454.36 1093.31 453.84 1092 454.04C1090.85 454.21 1089.95 454.86 1089.05 455.55C1088.36 456.08 1087.89 456.6 1087.03 456.23C1085.77 455.69 1084.81 455.16 1083.41 455.6C1082.14 455.99 1081.08 456.85 1080.33 457.93C1078.95 459.92 1082.2 461.79 1083.57 459.82V459.83Z" fill="#393433"/>
</g>
<path d="M1006.44 412.372L1001.53 417.371L1006.06 422.925" stroke="white" stroke-width="2.2611" stroke-linecap="round" stroke-linejoin="round"/>
<path d="M978.683 425.109C980.878 429.619 985.591 431.786 990.465 431.282C993.739 430.96 996.967 429.236 998.114 426.034" stroke="white" stroke-width="2.2611" stroke-linecap="round" stroke-linejoin="round"/>
</g>
<path d="M1002.94 617.953H1005.82V620.414H1002.94V624.492H999.939V613.828H1002.94V617.953ZM996.892 623.695H986.65V614.836H996.892V623.695ZM989.603 621.328H993.939V617.18H989.603V621.328ZM1002.94 631.148H991.759V632.578H1003.55V634.922H988.83V628.992H999.962V627.633H988.783V625.336H1002.94V631.148ZM1026.16 632.789H1006.64V630.328H1014.87V627.117H1008.89V619.945H1020.96V617.602H1008.87V615.211H1023.91V622.289H1011.89V624.68H1024.4V627.117H1017.84V630.328H1026.16V632.789ZM1040.55 619.641C1040.54 620.758 1040.73 621.879 1041.12 623.004C1041.52 624.129 1042.11 625.16 1042.9 626.098C1043.69 627.027 1044.65 627.75 1045.77 628.266L1044.11 630.609C1042.95 630.078 1041.95 629.309 1041.1 628.301C1040.25 627.285 1039.58 626.113 1039.08 624.785C1038.59 626.246 1037.9 627.531 1037.02 628.641C1036.15 629.75 1035.11 630.586 1033.91 631.148L1032.18 628.781C1033.32 628.25 1034.29 627.496 1035.1 626.52C1035.9 625.535 1036.51 624.445 1036.91 623.25C1037.33 622.055 1037.54 620.852 1037.55 619.641V618.328H1033.02V615.891H1044.84V618.328H1040.55V619.641ZM1049.5 621.961H1052.64V624.469H1049.5V635.156H1046.5V613.828H1049.5V621.961ZM1071.15 629.414H1068.15V613.852H1071.15V629.414ZM1071.72 634.781H1056.86V627.914H1059.88V632.391H1071.72V634.781ZM1061.47 617.086C1061.47 618.055 1061.64 618.98 1061.99 619.863C1062.35 620.746 1062.9 621.531 1063.64 622.219C1064.39 622.906 1065.33 623.43 1066.47 623.789L1064.94 626.133C1063.77 625.742 1062.76 625.168 1061.92 624.41C1061.08 623.652 1060.41 622.754 1059.93 621.715C1059.44 622.84 1058.76 623.816 1057.89 624.645C1057.02 625.473 1055.98 626.094 1054.77 626.508L1053.22 624.141C1054.37 623.758 1055.33 623.199 1056.1 622.465C1056.87 621.73 1057.44 620.902 1057.81 619.98C1058.17 619.051 1058.36 618.086 1058.36 617.086V615.023H1061.47V617.086ZM1080.83 615.258C1081.94 615.25 1082.94 615.473 1083.84 615.926C1084.75 616.371 1085.46 616.992 1085.96 617.789C1086.48 618.586 1086.74 619.484 1086.74 620.484C1086.74 621.492 1086.48 622.395 1085.96 623.191C1085.46 623.988 1084.75 624.613 1083.85 625.066C1082.96 625.512 1081.95 625.734 1080.83 625.734C1079.71 625.734 1078.7 625.512 1077.8 625.066C1076.9 624.613 1076.19 623.988 1075.67 623.191C1075.16 622.395 1074.9 621.492 1074.9 620.484C1074.9 619.484 1075.16 618.586 1075.67 617.789C1076.19 616.992 1076.9 616.371 1077.81 615.926C1078.71 615.473 1079.72 615.25 1080.83 615.258ZM1080.83 617.836C1080.27 617.836 1079.76 617.941 1079.31 618.152C1078.85 618.363 1078.5 618.672 1078.24 619.078C1077.99 619.477 1077.87 619.945 1077.88 620.484C1077.87 621.031 1077.99 621.504 1078.24 621.902C1078.5 622.301 1078.85 622.605 1079.3 622.816C1079.75 623.027 1080.26 623.133 1080.83 623.133C1081.4 623.133 1081.91 623.027 1082.35 622.816C1082.81 622.605 1083.16 622.301 1083.42 621.902C1083.69 621.504 1083.82 621.031 1083.83 620.484C1083.82 619.938 1083.69 619.465 1083.43 619.066C1083.17 618.668 1082.82 618.363 1082.37 618.152C1081.91 617.941 1081.4 617.836 1080.83 617.836ZM1091.85 635.203H1088.87V613.828H1091.85V635.203ZM1075.18 628.406C1080.19 628.406 1084.35 628.18 1087.65 627.727L1087.89 629.883C1085.79 630.289 1083.66 630.551 1081.48 630.668C1079.3 630.785 1076.92 630.844 1074.36 630.844L1074.01 628.406H1075.18ZM1106.77 617.625C1106.77 618.422 1106.91 619.188 1107.19 619.922C1107.48 620.648 1107.93 621.309 1108.53 621.902C1109.13 622.488 1109.89 622.953 1110.8 623.297L1109.21 625.57C1108.33 625.234 1107.56 624.766 1106.92 624.164C1106.28 623.562 1105.76 622.855 1105.36 622.043C1104.96 623.004 1104.41 623.848 1103.72 624.574C1103.04 625.293 1102.22 625.852 1101.26 626.25L1099.65 623.953C1100.61 623.531 1101.4 622.984 1102.02 622.312C1102.66 621.633 1103.12 620.891 1103.42 620.086C1103.72 619.281 1103.86 618.461 1103.86 617.625V615.117H1106.77V617.625ZM1118.28 626.883H1115.44V621.469H1113.66V626.227H1110.87V614.227H1113.66V619.055H1115.44V613.852H1118.28V626.883ZM1110.99 627.188C1112.48 627.188 1113.78 627.348 1114.89 627.668C1116.01 627.988 1116.87 628.449 1117.47 629.051C1118.08 629.645 1118.39 630.352 1118.4 631.172C1118.39 631.992 1118.08 632.699 1117.47 633.293C1116.87 633.895 1116.01 634.355 1114.89 634.676C1113.78 634.996 1112.48 635.156 1110.99 635.156C1109.49 635.156 1108.18 634.996 1107.08 634.676C1105.97 634.355 1105.11 633.895 1104.51 633.293C1103.91 632.699 1103.61 631.992 1103.61 631.172C1103.61 630.352 1103.91 629.645 1104.51 629.051C1105.11 628.449 1105.97 627.988 1107.08 627.668C1108.18 627.348 1109.49 627.188 1110.99 627.188ZM1110.99 629.414C1109.58 629.414 1108.5 629.566 1107.73 629.871C1106.97 630.168 1106.6 630.602 1106.61 631.172C1106.6 631.742 1106.97 632.176 1107.73 632.473C1108.49 632.762 1109.58 632.906 1110.99 632.906C1112.39 632.906 1113.47 632.762 1114.22 632.473C1114.99 632.176 1115.37 631.742 1115.37 631.172C1115.37 630.602 1114.99 630.168 1114.22 629.871C1113.47 629.566 1112.39 629.414 1110.99 629.414ZM1137.49 618.82H1140.38V621.305H1137.49V626.227H1134.49V613.828H1137.49V618.82ZM1131.49 615.023C1131.49 617.852 1130.64 620.215 1128.92 622.113C1127.21 624.012 1124.74 625.367 1121.51 626.18L1120.27 623.906C1122.65 623.312 1124.52 622.449 1125.87 621.316C1127.23 620.176 1128.03 618.867 1128.26 617.391H1121.39V615.023H1131.49ZM1137.49 635.156H1134.49V629.461H1123.13V627.07H1137.49V635.156ZM1150.92 614.133C1152.55 614.133 1153.95 614.273 1155.11 614.555C1156.26 614.836 1157.14 615.25 1157.75 615.797C1158.36 616.336 1158.67 616.992 1158.68 617.766C1158.67 618.547 1158.36 619.211 1157.75 619.758C1157.14 620.305 1156.26 620.719 1155.11 621C1153.95 621.281 1152.55 621.422 1150.92 621.422C1149.28 621.422 1147.88 621.281 1146.71 621C1145.55 620.719 1144.66 620.305 1144.05 619.758C1143.44 619.211 1143.14 618.547 1143.14 617.766C1143.14 616.992 1143.44 616.336 1144.05 615.797C1144.66 615.25 1145.55 614.836 1146.71 614.555C1147.88 614.273 1149.28 614.133 1150.92 614.133ZM1150.92 616.312C1149.37 616.312 1148.2 616.438 1147.42 616.688C1146.64 616.93 1146.27 617.289 1146.28 617.766C1146.27 618.281 1146.64 618.652 1147.39 618.879C1148.14 619.105 1149.32 619.219 1150.92 619.219C1152.53 619.219 1153.71 619.105 1154.46 618.879C1155.21 618.652 1155.59 618.281 1155.59 617.766C1155.59 617.289 1155.2 616.93 1154.43 616.688C1153.65 616.438 1152.48 616.312 1150.92 616.312ZM1160.65 624.797H1141.19V622.43H1160.65V624.797ZM1158.28 631.477H1146.4V632.766H1158.84V635.016H1143.47V629.391H1155.33V628.219H1143.44V626.039H1158.28V631.477ZM1185.2 626.484H1182.23V621.445H1178.9V619.031H1182.23V613.828H1185.2V626.484ZM1177.92 626.953C1179.43 626.961 1180.74 627.129 1181.83 627.457C1182.93 627.777 1183.78 628.246 1184.37 628.863C1184.97 629.48 1185.27 630.219 1185.28 631.078C1185.27 631.93 1184.97 632.664 1184.37 633.281C1183.78 633.898 1182.93 634.367 1181.83 634.688C1180.73 635.016 1179.42 635.18 1177.92 635.18C1176.41 635.18 1175.1 635.016 1174 634.688C1172.9 634.367 1172.05 633.898 1171.46 633.281C1170.87 632.664 1170.58 631.93 1170.58 631.078C1170.58 630.219 1170.87 629.48 1171.46 628.863C1172.05 628.246 1172.9 627.777 1173.99 627.457C1175.09 627.129 1176.4 626.961 1177.92 626.953ZM1177.92 629.25C1175.01 629.25 1173.56 629.859 1173.56 631.078C1173.56 631.688 1173.92 632.145 1174.66 632.449C1175.4 632.754 1176.49 632.906 1177.92 632.906C1179.35 632.906 1180.43 632.754 1181.17 632.449C1181.92 632.137 1182.3 631.68 1182.3 631.078C1182.3 629.859 1180.84 629.25 1177.92 629.25ZM1179.53 617.508H1175.29C1175.31 618.367 1175.51 619.195 1175.87 619.992C1176.23 620.781 1176.78 621.492 1177.49 622.125C1178.22 622.758 1179.12 623.25 1180.19 623.602L1178.71 625.945C1177.57 625.578 1176.59 625.031 1175.76 624.305C1174.94 623.57 1174.29 622.707 1173.81 621.715C1173.32 622.84 1172.64 623.816 1171.78 624.645C1170.91 625.465 1169.86 626.086 1168.63 626.508L1167.09 624.141C1168.21 623.766 1169.15 623.234 1169.91 622.547C1170.68 621.852 1171.25 621.07 1171.62 620.203C1172.01 619.336 1172.21 618.438 1172.24 617.508H1167.95V615.117H1179.53V617.508ZM1205.73 635.203H1202.76V613.828H1205.73V635.203ZM1199.12 623.836H1192.09V627.75C1193.76 627.742 1195.32 627.684 1196.77 627.574C1198.22 627.465 1199.71 627.289 1201.23 627.047L1201.49 629.461C1199.83 629.75 1198.19 629.949 1196.55 630.059C1194.91 630.16 1193.03 630.211 1190.92 630.211H1189V621.469H1196.08V618.023H1188.98V615.609H1199.12V623.836ZM1225.3 622.172H1228.44V624.633H1225.3V635.156H1222.35V613.828H1225.3V622.172ZM1220.89 619.406H1208.36V617.016H1213.18V614.156H1216.18V617.016H1220.89V619.406ZM1214.68 620.602C1215.71 620.602 1216.64 620.82 1217.46 621.258C1218.29 621.688 1218.94 622.289 1219.41 623.062C1219.88 623.836 1220.12 624.711 1220.12 625.688C1220.12 626.664 1219.88 627.539 1219.41 628.312C1218.94 629.086 1218.29 629.691 1217.46 630.129C1216.64 630.559 1215.71 630.773 1214.68 630.773C1213.64 630.773 1212.71 630.559 1211.88 630.129C1211.05 629.691 1210.4 629.086 1209.93 628.312C1209.46 627.539 1209.22 626.664 1209.22 625.688C1209.22 624.711 1209.46 623.836 1209.93 623.062C1210.4 622.289 1211.05 621.688 1211.88 621.258C1212.71 620.82 1213.64 620.602 1214.68 620.602ZM1214.68 623.016C1214.18 623.023 1213.73 623.137 1213.34 623.355C1212.95 623.574 1212.64 623.883 1212.41 624.281C1212.19 624.68 1212.08 625.148 1212.08 625.688C1212.08 626.234 1212.19 626.707 1212.41 627.105C1212.64 627.504 1212.95 627.809 1213.34 628.02C1213.73 628.223 1214.18 628.32 1214.68 628.312C1215.18 628.32 1215.63 628.223 1216.02 628.02C1216.41 627.809 1216.71 627.504 1216.93 627.105C1217.15 626.707 1217.26 626.234 1217.26 625.688C1217.26 625.148 1217.15 624.68 1216.93 624.281C1216.71 623.883 1216.41 623.574 1216.02 623.355C1215.63 623.137 1215.18 623.023 1214.68 623.016ZM1247.02 635.156H1244V613.828H1247.02V635.156ZM1240.63 616.055C1240.63 618.336 1240.32 620.41 1239.7 622.277C1239.09 624.145 1238.06 625.859 1236.61 627.422C1235.15 628.977 1233.2 630.336 1230.74 631.5L1229.17 629.109C1230.99 628.25 1232.49 627.293 1233.67 626.238C1234.85 625.184 1235.76 624.016 1236.38 622.734C1237.02 621.445 1237.42 620 1237.58 618.398H1230.31V616.055H1240.63ZM1037.64 649.328C1038.59 649.328 1039.46 649.582 1040.23 650.09C1041 650.59 1041.64 651.309 1042.13 652.246C1042.63 653.176 1042.95 654.273 1043.09 655.539H1046.81V647.828H1049.76V669.203H1046.81V657.93H1043.13C1043.02 659.281 1042.73 660.457 1042.24 661.457C1041.74 662.449 1041.1 663.211 1040.31 663.742C1039.52 664.273 1038.63 664.539 1037.64 664.539C1036.56 664.539 1035.6 664.23 1034.76 663.613C1033.92 662.988 1033.27 662.102 1032.8 660.953C1032.33 659.797 1032.1 658.453 1032.11 656.922C1032.1 655.398 1032.33 654.066 1032.8 652.926C1033.27 651.777 1033.92 650.891 1034.76 650.266C1035.6 649.641 1036.56 649.328 1037.64 649.328ZM1037.64 652.023C1037.11 652.023 1036.64 652.215 1036.24 652.598C1035.83 652.973 1035.51 653.531 1035.29 654.273C1035.07 655.008 1034.96 655.891 1034.97 656.922C1034.96 657.961 1035.07 658.848 1035.29 659.582C1035.51 660.316 1035.83 660.875 1036.22 661.258C1036.63 661.633 1037.1 661.82 1037.64 661.82C1038.18 661.82 1038.65 661.633 1039.05 661.258C1039.45 660.883 1039.77 660.328 1039.99 659.594C1040.2 658.859 1040.31 657.969 1040.31 656.922C1040.31 655.883 1040.2 654.996 1039.99 654.262C1039.77 653.527 1039.45 652.973 1039.05 652.598C1038.65 652.215 1038.18 652.023 1037.64 652.023ZM1070.36 669.203H1067.38V660.602H1063.72V658.141H1067.38V654.789H1063.79V652.352H1067.38V647.828H1070.36V669.203ZM1062.67 657.812H1056.11V661.973C1057.51 661.957 1058.82 661.91 1060.03 661.832C1061.24 661.746 1062.49 661.609 1063.77 661.422L1064.01 663.859C1062.55 664.094 1061.14 664.246 1059.78 664.316C1058.41 664.387 1056.76 664.422 1054.82 664.422H1053.13V655.492H1059.74V651.977H1053.08V649.609H1062.67V657.812ZM1092.5 660.602H1084.42V664.305H1081.39V660.602H1072.98V658.211H1092.5V660.602ZM1090.35 668.781H1075.3V662.406H1078.32V666.367H1090.35V668.781ZM1082.73 648.227C1084.26 648.234 1085.6 648.422 1086.76 648.789C1087.93 649.148 1088.83 649.66 1089.47 650.324C1090.11 650.988 1090.43 651.766 1090.44 652.656C1090.43 653.555 1090.11 654.336 1089.47 655C1088.83 655.664 1087.93 656.176 1086.76 656.535C1085.6 656.887 1084.26 657.062 1082.73 657.062C1081.19 657.062 1079.84 656.887 1078.66 656.535C1077.5 656.176 1076.6 655.664 1075.96 655C1075.32 654.336 1075 653.555 1075 652.656C1075 651.766 1075.32 650.988 1075.96 650.324C1076.6 649.66 1077.5 649.148 1078.66 648.789C1079.84 648.422 1081.19 648.234 1082.73 648.227ZM1082.73 650.594C1081.32 650.594 1080.21 650.773 1079.41 651.133C1078.62 651.484 1078.22 651.992 1078.23 652.656C1078.22 653.305 1078.62 653.805 1079.41 654.156C1080.22 654.5 1081.32 654.672 1082.73 654.672C1084.12 654.672 1085.22 654.5 1086.02 654.156C1086.83 653.805 1087.23 653.305 1087.23 652.656C1087.23 651.992 1086.83 651.484 1086.02 651.133C1085.23 650.773 1084.13 650.594 1082.73 650.594ZM1111.69 652.094H1099.04V649.727H1103.89V647.711H1106.86V649.727H1111.69V652.094ZM1105.36 652.773C1106.39 652.773 1107.29 652.941 1108.08 653.277C1108.88 653.605 1109.5 654.066 1109.95 654.66C1110.39 655.254 1110.61 655.938 1110.61 656.711C1110.61 657.484 1110.39 658.168 1109.95 658.762C1109.5 659.355 1108.88 659.82 1108.08 660.156C1107.29 660.484 1106.39 660.648 1105.36 660.648C1104.34 660.648 1103.43 660.484 1102.62 660.156C1101.82 659.82 1101.19 659.355 1100.74 658.762C1100.29 658.168 1100.07 657.484 1100.07 656.711C1100.07 655.938 1100.29 655.254 1100.74 654.66C1101.19 654.066 1101.82 653.605 1102.62 653.277C1103.43 652.941 1104.34 652.773 1105.36 652.773ZM1105.36 655.023C1104.63 655.023 1104.05 655.172 1103.62 655.469C1103.2 655.758 1102.99 656.172 1103 656.711C1102.99 657.234 1103.2 657.641 1103.62 657.93C1104.05 658.211 1104.63 658.352 1105.36 658.352C1106.1 658.352 1106.68 658.211 1107.12 657.93C1107.56 657.641 1107.78 657.234 1107.78 656.711C1107.78 656.172 1107.56 655.758 1107.12 655.469C1106.68 655.172 1106.1 655.023 1105.36 655.023ZM1115.96 653.359H1118.84V655.797H1115.96V661.211H1112.96V647.828H1115.96V653.359ZM1115.96 669.156H1112.96V664.492H1101.59V662.102H1115.96V669.156ZM1126.48 651.625C1126.48 652.422 1126.62 653.188 1126.9 653.922C1127.19 654.648 1127.64 655.309 1128.24 655.902C1128.84 656.488 1129.6 656.953 1130.51 657.297L1128.92 659.57C1128.03 659.234 1127.27 658.766 1126.63 658.164C1125.99 657.562 1125.47 656.855 1125.07 656.043C1124.67 657.004 1124.12 657.848 1123.43 658.574C1122.75 659.293 1121.93 659.852 1120.97 660.25L1119.35 657.953C1120.32 657.531 1121.11 656.984 1121.73 656.312C1122.37 655.633 1122.83 654.891 1123.13 654.086C1123.42 653.281 1123.57 652.461 1123.57 651.625V649.117H1126.48V651.625ZM1137.99 660.883H1135.15V655.469H1133.37V660.227H1130.58V648.227H1133.37V653.055H1135.15V647.852H1137.99V660.883ZM1130.7 661.188C1132.19 661.188 1133.49 661.348 1134.6 661.668C1135.72 661.988 1136.58 662.449 1137.18 663.051C1137.79 663.645 1138.1 664.352 1138.1 665.172C1138.1 665.992 1137.79 666.699 1137.18 667.293C1136.58 667.895 1135.72 668.355 1134.6 668.676C1133.49 668.996 1132.19 669.156 1130.7 669.156C1129.2 669.156 1127.89 668.996 1126.78 668.676C1125.67 668.355 1124.82 667.895 1124.22 667.293C1123.62 666.699 1123.32 665.992 1123.32 665.172C1123.32 664.352 1123.62 663.645 1124.22 663.051C1124.82 662.449 1125.67 661.988 1126.78 661.668C1127.89 661.348 1129.2 661.188 1130.7 661.188ZM1130.7 663.414C1129.29 663.414 1128.21 663.566 1127.44 663.871C1126.68 664.168 1126.31 664.602 1126.32 665.172C1126.31 665.742 1126.68 666.176 1127.44 666.473C1128.2 666.762 1129.28 666.906 1130.7 666.906C1132.1 666.906 1133.17 666.762 1133.93 666.473C1134.7 666.176 1135.08 665.742 1135.08 665.172C1135.08 664.602 1134.7 664.168 1133.93 663.871C1133.17 663.566 1132.1 663.414 1130.7 663.414ZM1158.14 669.203H1155.12V647.828H1158.14V669.203ZM1146.56 649.328C1147.63 649.328 1148.59 649.641 1149.43 650.266C1150.28 650.891 1150.95 651.777 1151.44 652.926C1151.92 654.074 1152.16 655.406 1152.16 656.922C1152.16 658.453 1151.92 659.797 1151.44 660.953C1150.95 662.102 1150.28 662.988 1149.43 663.613C1148.59 664.23 1147.63 664.539 1146.56 664.539C1145.47 664.539 1144.49 664.23 1143.63 663.613C1142.77 662.988 1142.1 662.102 1141.62 660.953C1141.14 659.797 1140.91 658.453 1140.91 656.922C1140.91 655.406 1141.14 654.074 1141.62 652.926C1142.1 651.777 1142.77 650.891 1143.63 650.266C1144.49 649.641 1145.47 649.328 1146.56 649.328ZM1146.56 652.023C1146.01 652.023 1145.52 652.215 1145.1 652.598C1144.68 652.973 1144.36 653.527 1144.14 654.262C1143.91 654.996 1143.8 655.883 1143.8 656.922C1143.8 657.969 1143.91 658.859 1144.14 659.594C1144.36 660.328 1144.68 660.883 1145.1 661.258C1145.52 661.633 1146.01 661.82 1146.56 661.82C1147.11 661.82 1147.59 661.633 1147.99 661.258C1148.4 660.875 1148.71 660.316 1148.94 659.582C1149.17 658.848 1149.28 657.961 1149.28 656.922C1149.28 655.891 1149.17 655.008 1148.94 654.273C1148.71 653.531 1148.39 652.973 1147.98 652.598C1147.57 652.215 1147.1 652.023 1146.56 652.023ZM1179.4 669.156H1176.54V647.828H1179.4V669.156ZM1174.94 668.172H1172.13V658.094H1170.41C1170.32 659.484 1170.07 660.684 1169.66 661.691C1169.25 662.699 1168.71 663.473 1168.04 664.012C1167.37 664.551 1166.6 664.82 1165.73 664.82C1164.8 664.82 1163.99 664.508 1163.28 663.883C1162.59 663.258 1162.05 662.363 1161.66 661.199C1161.28 660.027 1161.09 658.648 1161.09 657.062C1161.09 655.484 1161.28 654.117 1161.66 652.961C1162.05 651.797 1162.59 650.906 1163.28 650.289C1163.99 649.664 1164.8 649.352 1165.73 649.352C1166.58 649.352 1167.34 649.605 1167.99 650.113C1168.66 650.621 1169.19 651.355 1169.6 652.316C1170.01 653.27 1170.27 654.406 1170.38 655.727H1172.13V648.133H1174.94V668.172ZM1165.73 652.164C1165.12 652.164 1164.65 652.578 1164.33 653.406C1164 654.234 1163.85 655.453 1163.86 657.062C1163.85 658.68 1164 659.902 1164.33 660.73C1164.65 661.551 1165.12 661.953 1165.73 661.938C1166.35 661.953 1166.83 661.551 1167.16 660.73C1167.5 659.902 1167.68 658.68 1167.68 657.062C1167.68 655.453 1167.5 654.234 1167.16 653.406C1166.83 652.578 1166.35 652.164 1165.73 652.164ZM1201.05 666.672H1181.53V664.211H1185.88V658.996C1185.04 658.488 1184.39 657.863 1183.93 657.121C1183.47 656.371 1183.24 655.531 1183.24 654.602C1183.24 653.469 1183.58 652.469 1184.27 651.602C1184.95 650.734 1185.9 650.062 1187.12 649.586C1188.33 649.102 1189.71 648.859 1191.25 648.859C1192.78 648.859 1194.15 649.102 1195.37 649.586C1196.58 650.062 1197.54 650.734 1198.24 651.602C1198.93 652.469 1199.28 653.469 1199.29 654.602C1199.28 655.508 1199.05 656.332 1198.6 657.074C1198.15 657.809 1197.53 658.43 1196.71 658.938V664.211H1201.05V666.672ZM1191.25 651.227C1190.24 651.227 1189.35 651.359 1188.58 651.625C1187.82 651.891 1187.23 652.277 1186.81 652.785C1186.4 653.285 1186.19 653.891 1186.19 654.602C1186.19 655.289 1186.4 655.887 1186.81 656.395C1187.23 656.902 1187.83 657.293 1188.59 657.566C1189.36 657.84 1190.24 657.977 1191.25 657.977C1192.25 657.977 1193.13 657.84 1193.9 657.566C1194.67 657.293 1195.26 656.902 1195.68 656.395C1196.11 655.887 1196.33 655.289 1196.34 654.602C1196.33 653.898 1196.12 653.293 1195.69 652.785C1195.27 652.277 1194.68 651.891 1193.91 651.625C1193.15 651.359 1192.26 651.227 1191.25 651.227ZM1193.69 664.211V660.074C1192.88 660.223 1192.07 660.297 1191.25 660.297C1190.38 660.297 1189.57 660.223 1188.84 660.074V664.211H1193.69ZM1206.69 661.914H1203.69L1203.39 650.031H1207L1206.69 661.914ZM1205.22 667.211C1204.86 667.211 1204.53 667.121 1204.22 666.941C1203.92 666.762 1203.67 666.523 1203.5 666.227C1203.32 665.922 1203.24 665.594 1203.25 665.242C1203.24 664.891 1203.32 664.566 1203.5 664.27C1203.67 663.973 1203.92 663.738 1204.22 663.566C1204.53 663.387 1204.86 663.297 1205.22 663.297C1205.55 663.297 1205.87 663.387 1206.17 663.566C1206.47 663.738 1206.71 663.973 1206.89 664.27C1207.07 664.566 1207.16 664.891 1207.16 665.242C1207.16 665.594 1207.07 665.922 1206.89 666.227C1206.71 666.523 1206.47 666.762 1206.17 666.941C1205.87 667.121 1205.55 667.211 1205.22 667.211Z" fill="#CACACA"/>
<defs>
<clipPath id="clip0_171_5358">
<rect x="180" y="296" width="280" height="280" rx="140" fill="white"/>
</clipPath>
<clipPath id="clip1_171_5358">
<rect x="580" y="296" width="280" height="280" rx="140" fill="white"/>
</clipPath>
<clipPath id="clip2_171_5358">
<rect x="980" y="296" width="280" height="280" rx="140" fill="white"/>
</clipPath>
<clipPath id="clip3_171_5358">
<rect width="26.12" height="6.67" fill="white" transform="translate(1080 454)"/>
</clipPath>
</defs>
</svg>
