<svg width="213" height="106" viewBox="0 0 213 106" fill="none" xmlns="http://www.w3.org/2000/svg">
<path d="M17.4261 47.4729H11.0132C3.66649 47.4729 0 44.464 0 38.4324V9.0405C0 3.00894 3.66649 0 11.0132 0H22.0264C29.3731 0 33.0396 3.00894 33.0396 9.0405V38.4324C33.0396 41.5781 32.0371 43.9169 30.0322 45.4214L30.966 47.4729L32.0097 49.7296C32.1882 50.1399 32.2843 50.4955 32.2843 50.7964C32.2843 51.5897 31.6114 52 30.2794 52H22.0264C20.1863 52 19.0465 51.4392 18.5796 50.304L17.4261 47.4729ZM16.5198 11.2972C14.6797 11.2972 13.7596 12.0494 13.7596 13.5539V33.9053C13.7596 35.4098 14.6797 36.162 16.5198 36.162C18.3599 36.162 19.2799 35.4098 19.2799 33.9053V13.5539C19.2799 12.0494 18.3599 11.2972 16.5198 11.2972Z" fill="#FF7700"/>
<path d="M67.6735 0C69.5136 0 70.4336 0.752235 70.4336 2.25671V38.4324C70.4336 44.464 66.7671 47.4729 59.4204 47.4729H48.4072C41.0605 47.4729 37.394 44.464 37.394 38.4324V2.25671C37.394 0.752235 38.3141 0 40.1542 0H48.4072C50.2473 0 51.1537 0.752235 51.1537 2.25671V33.9053C51.1537 35.4098 52.0737 36.162 53.9138 36.162C55.7539 36.162 56.674 35.4098 56.674 33.9053V2.25671C56.674 0.752235 57.594 0 59.4204 0H67.6735Z" fill="#FF7700"/>
<path d="M76.0625 2.25671C76.0625 0.752235 76.9825 0 78.8227 0H100.849C102.689 0 103.609 0.752235 103.609 2.25671V9.0405C103.609 10.545 102.689 11.2972 100.849 11.2972H89.8359V18.081H98.0889C99.929 18.081 100.849 18.8332 100.849 20.3377V27.1215C100.849 28.626 99.929 29.3782 98.0889 29.3782H89.8359V36.162H100.849C102.689 36.162 103.609 36.9143 103.609 38.4187V45.2025C103.609 46.707 102.689 47.4592 100.849 47.4592H78.8227C76.9825 47.4592 76.0625 46.707 76.0625 45.2025V2.25671Z" fill="#FF7700"/>
<path d="M139.053 13.5539C139.053 15.0584 138.133 15.8106 136.293 15.8106H128.04C126.199 15.8106 125.293 15.0584 125.293 13.5539C125.293 12.0494 124.373 11.2972 122.533 11.2972C120.693 11.2972 119.773 12.0494 119.773 13.5539C119.773 16.5629 121.613 18.4503 125.279 19.2025C128.946 19.9548 132.159 21.4592 134.919 23.7296C137.68 25.9863 139.053 29.3782 139.053 33.9053V36.162C139.053 43.6981 135.386 47.4592 128.04 47.4592H117.026C109.68 47.4592 106.013 43.6981 106.013 36.162V33.9053C106.013 32.4008 106.933 31.6486 108.773 31.6486H117.026C118.866 31.6486 119.773 32.4008 119.773 33.9053C119.773 35.4098 120.693 36.162 122.533 36.162C124.373 36.162 125.293 35.4098 125.293 33.9053C125.293 30.8964 123.453 29.0089 119.787 28.2567C116.12 27.5045 112.907 26 110.147 23.7296C107.4 21.4729 106.013 18.081 106.013 13.5539V11.2972C106.013 3.76118 109.68 0 117.026 0H128.04C135.386 0 139.053 3.77486 139.053 11.2972V13.5539Z" fill="#FF7700"/>
<path d="M162.615 11.2972V45.2025C162.615 46.707 161.695 47.4592 159.869 47.4592H151.616C149.776 47.4592 148.856 46.707 148.856 45.2025V11.2972H143.349C141.509 11.2972 140.589 10.545 140.589 9.0405V2.25671C140.589 0.752235 141.509 0 143.349 0H168.122C169.962 0 170.868 0.752235 170.868 2.25671V9.0405C170.868 10.545 169.948 11.2972 168.122 11.2972H162.615Z" fill="#FF7700"/>
<path d="M33.0396 70.9737C33.0396 72.494 32.1195 73.2541 30.2794 73.2541H22.0264C20.1863 73.2541 19.2799 72.494 19.2799 70.9737C19.2799 69.4534 18.3599 68.6933 16.5198 68.6933C14.6797 68.6933 13.7596 69.4534 13.7596 70.9737C13.7596 74.0143 15.5997 75.9215 19.2662 76.6817C22.9327 77.4418 26.146 78.9621 28.9062 81.2563C31.6664 83.5367 33.0396 86.9643 33.0396 91.5389V93.8194C33.0396 101.435 29.3731 105.235 22.0264 105.235H11.0132C3.66649 105.235 0 101.435 0 93.8194V91.5389C0 90.0187 0.920057 89.2585 2.76017 89.2585H11.0132C12.8533 89.2585 13.7596 90.0187 13.7596 91.5389C13.7596 93.0592 14.6797 93.8194 16.5198 93.8194C18.3599 93.8194 19.2799 93.0592 19.2799 91.5389C19.2799 88.4984 17.4398 86.5911 13.7734 85.831C10.1069 85.0708 6.89355 83.5506 4.13338 81.2563C1.38695 78.9759 0 75.5484 0 70.9737V68.6933C0 61.078 3.66649 57.2773 11.0132 57.2773H22.0264C29.3731 57.2773 33.0396 61.0919 33.0396 68.6933V70.9737Z" fill="#414042"/>
<path d="M59.4058 75.5492C57.5657 75.5492 56.6593 74.789 56.6593 73.2688V70.9883C56.6593 69.4681 55.7393 68.7079 53.8992 68.7079C52.0591 68.7079 51.139 69.4681 51.139 70.9883V91.5536C51.139 93.0739 52.0591 93.834 53.8992 93.834C55.7393 93.834 56.6593 93.0739 56.6593 91.5536V89.2732C56.6593 87.7529 57.5794 86.9928 59.4058 86.9928H67.6588C69.4989 86.9928 70.419 87.7529 70.419 89.2732V96.1283C70.419 102.223 66.7525 105.264 59.4058 105.264H48.3926C41.0459 105.264 37.3794 102.223 37.3794 96.1283V66.4275C37.3794 60.3326 41.0459 57.292 48.3926 57.292H59.4058C66.7525 57.292 70.419 60.3326 70.419 66.4275V73.2826C70.419 74.8029 69.4989 75.563 67.6588 75.563H59.4058V75.5492Z" fill="#414042"/>
<path d="M88.5301 86.9644V102.955C88.5301 104.475 87.6101 105.235 85.7837 105.235H77.5307C75.6906 105.235 74.7705 104.475 74.7705 102.955V59.5441C74.7705 58.0238 75.6906 57.2637 77.5307 57.2637H85.7837C87.6238 57.2637 88.5301 58.0238 88.5301 59.5441V75.5347H94.0367V59.5441C94.0367 58.0238 94.9568 57.2637 96.7832 57.2637H105.036C106.876 57.2637 107.796 58.0238 107.796 59.5441V102.955C107.796 104.475 106.876 105.235 105.036 105.235H96.7832C94.943 105.235 94.0367 104.475 94.0367 102.955V86.9644H88.5301Z" fill="#414042"/>
<path d="M113.455 96.1V66.3992C113.455 60.3042 117.121 57.2637 124.468 57.2637H135.481C142.828 57.2637 146.494 60.3042 146.494 66.3992V96.1C146.494 102.195 142.828 105.235 135.481 105.235H124.468C117.121 105.235 113.455 102.195 113.455 96.1ZM129.974 68.6796C128.134 68.6796 127.214 69.4397 127.214 70.96V91.5253C127.214 93.0456 128.134 93.8057 129.974 93.8057C131.814 93.8057 132.735 93.0456 132.735 91.5253V70.96C132.735 69.4397 131.814 68.6796 129.974 68.6796Z" fill="#414042"/>
<path d="M150.834 96.1V66.3992C150.834 60.3042 154.5 57.2637 161.847 57.2637H172.86C180.207 57.2637 183.874 60.3042 183.874 66.3992V96.1C183.874 102.195 180.207 105.235 172.86 105.235H161.847C154.5 105.235 150.834 102.195 150.834 96.1ZM167.354 68.6796C165.514 68.6796 164.594 69.4397 164.594 70.96V91.5253C164.594 93.0456 165.514 93.8057 167.354 93.8057C169.194 93.8057 170.114 93.0456 170.114 91.5253V70.96C170.114 69.4397 169.194 68.6796 167.354 68.6796Z" fill="#414042"/>
<path d="M188.227 59.5578C188.227 58.0375 189.147 57.2773 190.987 57.2773H199.24C201.08 57.2773 201.987 58.0375 201.987 59.5578V93.8194H210.24C212.08 93.8194 213 94.5795 213 96.0998V102.955C213 104.475 212.08 105.235 210.24 105.235H190.974C189.133 105.235 188.213 104.475 188.213 102.955V59.5439L188.227 59.5578Z" fill="#414042"/>
</svg>
