<svg width="2345" height="307" viewBox="0 0 2345 307" fill="none" xmlns="http://www.w3.org/2000/svg">
<g clip-path="url(#clip0_1321_2)">
<path d="M1286.26 80.0943C1286.26 89.0014 1280.85 93.4376 1270.09 93.4376H1221.55C1210.76 93.4376 1205.38 89.0014 1205.38 80.0943C1205.38 71.1871 1199.97 66.751 1189.21 66.751C1178.46 66.751 1173.05 71.1871 1173.05 80.0943C1173.05 97.8737 1183.84 109.016 1205.42 113.452C1227 117.889 1245.89 126.796 1262.06 140.139C1278.23 153.482 1286.33 173.497 1286.33 200.184V213.527C1286.33 258.028 1264.75 280.243 1221.59 280.243H1156.84C1113.68 280.243 1092.1 257.993 1092.1 213.527V200.184C1092.1 191.277 1097.48 186.84 1108.27 186.84H1156.81C1167.6 186.84 1172.98 191.277 1172.98 200.184C1172.98 209.091 1178.35 213.527 1189.14 213.527C1199.94 213.527 1205.31 209.091 1205.31 200.184C1205.31 182.404 1194.52 171.262 1172.94 166.826C1151.36 162.389 1132.47 153.482 1116.3 140.139C1100.13 126.796 1092.03 106.781 1092.03 80.0943V66.751C1092.03 22.2502 1113.61 0.034668 1156.77 0.034668H1221.52C1264.68 0.034668 1286.26 22.2851 1286.26 66.751V80.0943Z" fill="white"/>
<path d="M1441.27 106.781C1430.48 106.781 1425.1 102.345 1425.1 93.4376V80.0943C1425.1 71.1871 1419.69 66.751 1408.94 66.751C1398.18 66.751 1392.77 71.1871 1392.77 80.0943V200.219C1392.77 209.126 1398.15 213.562 1408.94 213.562C1419.73 213.562 1425.1 209.126 1425.1 200.219V186.875C1425.1 177.968 1430.48 173.532 1441.27 173.532H1489.81C1500.6 173.532 1505.98 177.968 1505.98 186.875V226.905C1505.98 262.499 1484.4 280.278 1441.24 280.278H1376.49C1333.33 280.278 1311.75 262.499 1311.75 226.905V53.4077C1311.75 17.814 1333.33 0.034668 1376.49 0.034668H1441.24C1484.4 0.034668 1505.98 17.814 1505.98 53.4077V93.4376C1505.98 102.345 1500.57 106.781 1489.81 106.781H1441.27Z" fill="white"/>
<path d="M1612.49 173.497V266.935C1612.49 275.842 1607.11 280.278 1596.32 280.278H1547.78C1536.99 280.278 1531.61 275.842 1531.61 266.935V13.378C1531.61 4.47081 1536.99 0.034668 1547.78 0.034668H1596.32C1607.11 0.034668 1612.49 4.47081 1612.49 13.378V106.816H1644.86V13.378C1644.86 4.47081 1650.24 0.034668 1661.03 0.034668H1709.57C1720.36 0.034668 1725.74 4.47081 1725.74 13.378V266.935C1725.74 275.842 1720.32 280.278 1709.57 280.278H1661.03C1650.24 280.278 1644.86 275.842 1644.86 266.935V173.497H1612.49Z" fill="white"/>
<path d="M1758.95 226.905V53.4077C1758.95 17.814 1780.53 0.034668 1823.69 0.034668H1888.43C1931.6 0.034668 1953.18 17.814 1953.18 53.4077V226.905C1953.18 262.499 1931.6 280.278 1888.43 280.278H1823.69C1780.53 280.278 1758.95 262.499 1758.95 226.905ZM1856.06 66.751C1845.27 66.751 1839.89 71.1871 1839.89 80.0943V200.219C1839.89 209.126 1845.27 213.562 1856.06 213.562C1866.85 213.562 1872.23 209.126 1872.23 200.219V80.0943C1872.23 71.1871 1866.82 66.751 1856.06 66.751Z" fill="white"/>
<path d="M1978.74 226.905V53.4077C1978.74 17.814 2000.32 0.034668 2043.48 0.034668H2108.22C2151.39 0.034668 2172.97 17.814 2172.97 53.4077V226.905C2172.97 262.499 2151.39 280.278 2108.22 280.278H2043.48C2000.32 280.278 1978.74 262.499 1978.74 226.905ZM2075.82 66.751C2065.03 66.751 2059.65 71.1871 2059.65 80.0943V200.219C2059.65 209.126 2065.03 213.562 2075.82 213.562C2086.61 213.562 2091.99 209.126 2091.99 200.219V80.0943C2091.99 71.1871 2086.57 66.751 2075.82 66.751Z" fill="white"/>
<path d="M2198.49 13.3433C2198.49 4.43611 2203.87 0 2214.66 0H2263.2C2273.99 0 2279.37 4.43611 2279.37 13.3433V213.527H2327.91C2338.7 213.527 2344.08 217.963 2344.08 226.87V266.9C2344.08 275.807 2338.67 280.244 2327.91 280.244H2214.63C2203.84 280.244 2198.46 275.807 2198.46 266.9V13.3433H2198.49Z" fill="white"/>
<path d="M103.152 280.244H65.4374C22.2754 280.244 0.694336 262.464 0.694336 226.871V53.3731C0.694336 17.7794 22.2754 0 65.4374 0H130.181C173.343 0 194.924 17.7794 194.924 53.3731V226.871C194.924 245.453 189.057 259.216 177.289 268.123L182.806 280.279L188.952 293.622C190.035 296.032 190.559 298.128 190.559 299.909C190.559 304.625 186.613 307 178.755 307H130.216C119.425 307 112.685 303.647 109.996 296.975L103.187 280.279L103.152 280.244ZM97.8091 66.7164C87.0186 66.7164 81.6407 71.1525 81.6407 80.0596V200.184C81.6407 209.091 87.0186 213.527 97.8091 213.527C108.6 213.527 113.977 209.091 113.977 200.184V80.0596C113.977 71.1525 108.565 66.7164 97.8091 66.7164Z" fill="white"/>
<path d="M398.512 0C409.303 0 414.681 4.43611 414.681 13.3433V226.871C414.681 262.464 393.099 280.244 349.937 280.244H285.194C242.032 280.244 220.451 262.464 220.451 226.871V13.3433C220.451 4.43611 225.829 0 236.62 0H285.159C295.95 0 301.328 4.43611 301.328 13.3433V200.184C301.328 209.091 306.706 213.527 317.496 213.527C328.287 213.527 333.664 209.091 333.664 200.184V13.3433C333.664 4.43611 339.042 0 349.833 0H398.373H398.512Z" fill="white"/>
<path d="M447.856 13.3433C447.856 4.43611 453.234 0 464.024 0H593.475C604.266 0 609.644 4.43611 609.644 13.3433V53.3731C609.644 62.2802 604.231 66.7164 593.475 66.7164H528.732V106.746H577.272C588.063 106.746 593.44 111.182 593.44 120.089V160.119C593.44 169.026 588.028 173.463 577.272 173.463H528.732V213.492H593.475C604.266 213.492 609.644 217.928 609.644 226.836V266.865C609.644 275.773 604.231 280.209 593.475 280.209H464.024C453.234 280.209 447.856 275.773 447.856 266.865V13.3433Z" fill="white"/>
<path d="M818.12 80.0596C818.12 88.9668 812.707 93.4029 801.951 93.4029H753.412C742.621 93.4029 737.243 88.9668 737.243 80.0596C737.243 71.1525 731.83 66.7164 721.075 66.7164C710.319 66.7164 704.907 71.1525 704.907 80.0596C704.907 97.839 715.697 108.982 737.278 113.418C758.859 117.854 777.751 126.761 793.92 140.104C810.088 153.448 818.19 173.463 818.19 200.149V213.492C818.19 257.993 796.609 280.209 753.447 280.209H688.703C645.541 280.209 623.96 257.958 623.96 213.492V200.149C623.96 191.242 629.338 186.806 640.129 186.806H688.668C699.459 186.806 704.837 191.242 704.837 200.149C704.837 209.056 710.215 213.492 721.005 213.492C731.796 213.492 737.173 209.056 737.173 200.149C737.173 182.37 726.383 171.227 704.802 166.791C683.221 162.355 664.329 153.448 648.16 140.104C631.992 126.761 623.89 106.746 623.89 80.0596V66.7164C623.89 22.2155 645.471 0 688.634 0H753.377C796.539 0 818.12 22.2504 818.12 66.7164V80.0596Z" fill="white"/>
<path d="M956.651 66.7164V266.9C956.651 275.808 951.273 280.244 940.483 280.244H891.943C881.153 280.244 875.775 275.808 875.775 266.9V66.7164H843.403C832.613 66.7164 827.235 62.2802 827.235 53.3731V13.3433C827.235 4.43611 832.613 0 843.403 0H989.058C999.848 0 1005.23 4.43611 1005.23 13.3433V53.3731C1005.23 62.2802 999.848 66.7164 989.058 66.7164H956.686H956.651Z" fill="white"/>
</g>
<defs>
<clipPath id="clip0_1321_2">
<rect width="2345" height="307" fill="white"/>
</clipPath>
</defs>
</svg>
