<svg width="375" height="611" viewBox="0 0 375 611" fill="none" xmlns="http://www.w3.org/2000/svg">
<rect width="375" height="611" fill="#1E1E1E"/>
<path d="M54.5328 76.1758C56.9449 76.1758 58.7711 78.1289 59.1422 81.3125H61.9742V74.9453H64.7477V92.9141H61.9742V83.5391H59.1812C58.8883 86.957 57.023 89.0469 54.5328 89.0469C51.7789 89.0469 49.8062 86.5664 49.8258 82.582C49.8062 78.6562 51.7789 76.1758 54.5328 76.1758ZM54.5328 78.7148C53.3414 78.7148 52.5016 80.0234 52.5211 82.582C52.5016 85.1797 53.3414 86.4883 54.5328 86.4883C55.7633 86.4883 56.5445 85.1797 56.5445 82.582C56.5445 80.0234 55.7633 78.7148 54.5328 78.7148ZM81.9133 74.9453V92.9141H79.1203V85.8047H76.2687V83.5195H79.1203V80.9414H76.2883V78.6758H79.1203V74.9453H81.9133ZM75.4094 76.4102V83.4609H70.1555V86.6445C72.2258 86.6348 74.0812 86.5371 76.1906 86.2344L76.425 88.5195C73.7883 88.9297 71.5226 88.9688 68.7883 88.9688H67.3625V81.293H72.6555V78.6172H67.3039V76.4102H75.4094ZM92.0867 75.1602C96.1101 75.1797 98.6492 76.4883 98.6687 78.6758C98.6492 80.8242 96.1101 82.1133 92.0867 82.1133C88.1023 82.1133 85.5047 80.8242 85.5047 78.6758C85.5047 76.4883 88.1023 75.1797 92.0867 75.1602ZM92.0867 77.3086C89.7234 77.2891 88.4148 77.7383 88.4344 78.6758C88.4148 79.5547 89.7234 79.9844 92.0867 79.9844C94.4305 79.9844 95.7586 79.5547 95.7586 78.6758C95.7586 77.7383 94.4305 77.2891 92.0867 77.3086ZM98.3172 86.5078V92.6797H85.7976V86.5078H90.6609V85.1211H83.9226V82.8945H100.27V85.1211H93.4734V86.5078H98.3172ZM88.5516 88.7148V90.4336H95.5828V88.7148H88.5516ZM109.272 75.1797C113.452 75.1992 115.834 76.2734 115.854 78.2266C115.834 80.2188 113.452 81.293 109.272 81.293C105.092 81.293 102.69 80.2188 102.69 78.2266C102.69 76.2734 105.092 75.1992 109.272 75.1797ZM109.272 77.2305C106.752 77.2305 105.639 77.5625 105.639 78.2266C105.639 78.9883 106.752 79.2227 109.272 79.2422C111.83 79.2227 112.944 78.9883 112.944 78.2266C112.944 77.5625 111.83 77.2305 109.272 77.2305ZM117.455 82.0156V84.2422H101.108V82.0156H117.455ZM115.502 85.1016V89.8477H105.737V90.668H115.932V92.7773H102.963V87.8945H112.709V87.1328H102.963V85.1016H115.502ZM136.943 74.9648V80.3359H139.267V82.6211H136.943V88.3438H134.13V74.9648H136.943ZM133.271 76.7617V78.9492H122.646V76.7617H126.552V74.9453H129.365V76.7617H133.271ZM127.959 79.457C130.576 79.457 132.412 80.8828 132.412 82.9727C132.412 85.043 130.576 86.4297 127.959 86.4297C125.341 86.4297 123.466 85.043 123.486 82.9727C123.466 80.8828 125.341 79.457 127.959 79.457ZM127.959 81.6055C126.923 81.6055 126.22 82.0742 126.22 82.9727C126.22 83.8711 126.923 84.3008 127.959 84.3203C129.013 84.3008 129.736 83.8711 129.736 82.9727C129.736 82.0742 129.013 81.6055 127.959 81.6055ZM137.529 90.3359V92.582H125.185V87.3086H127.998V90.3359H137.529ZM155.027 74.9648V88.168H152.234V81.8594H149.226V85.4141H140.573V76.1367H143.405V78.7344H146.452V76.1367H149.226V79.6133H152.234V74.9648H155.027ZM155.398 90.3359V92.582H142.995V86.8398H145.847V90.3359H155.398ZM143.405 83.2266H146.452V80.8633H143.405V83.2266ZM172.095 74.9453V92.9141H169.262V74.9453H172.095ZM162.309 76.1758C165.024 76.1758 167.055 78.6562 167.075 82.582C167.055 86.5664 165.024 89.0469 162.309 89.0469C159.536 89.0469 157.505 86.5664 157.505 82.582C157.505 78.6562 159.536 76.1758 162.309 76.1758ZM162.309 78.7148C161.04 78.7148 160.22 80.0234 160.239 82.582C160.22 85.1797 161.04 86.4883 162.309 86.4883C163.54 86.4883 164.36 85.1797 164.36 82.582C164.36 80.0234 163.54 78.7148 162.309 78.7148ZM188.44 74.9453V81.6055H190.979V83.9297H188.44V92.9141H185.666V74.9453H188.44ZM183.284 76.4102V83.5H177.776V86.4492C180.178 86.4395 182.248 86.332 184.514 85.9609L184.768 88.1875C182.053 88.6953 179.553 88.793 176.506 88.793H174.983V81.3125H180.471V78.6562H174.963V76.4102H183.284ZM206.055 82.8555V85.0625H200.957V88.6172H207.793V90.9023H191.406V88.6172H198.184V85.0625H193.281V76.1562H205.938V78.3828H196.094V82.8555H206.055ZM222.554 75.9609C222.554 76.498 222.515 77.0059 222.456 77.5039H225.347V74.9648H228.14V85.1797H225.347V83.5977H221.519V81.3711H225.347V79.75H221.831C220.63 82.4844 218.042 84.3887 214.253 85.375L213.179 83.1875C217.017 82.25 219.107 80.3848 219.546 78.1875H214.175V75.9609H222.554ZM221.362 85.8828V92.8359H218.53V88.1094H215.132V85.8828H221.362ZM228.14 85.8828V92.8359H225.347V88.1094H222.105V85.8828H228.14ZM235.13 76.1758C237.542 76.1758 239.368 78.1289 239.739 81.3125H242.571V74.9453H245.345V92.9141H242.571V83.5391H239.778C239.485 86.957 237.62 89.0469 235.13 89.0469C232.376 89.0469 230.403 86.5664 230.423 82.582C230.403 78.6562 232.376 76.1758 235.13 76.1758ZM235.13 78.7148C233.938 78.7148 233.098 80.0234 233.118 82.582C233.098 85.1797 233.938 86.4883 235.13 86.4883C236.36 86.4883 237.141 85.1797 237.141 82.582C237.141 80.0234 236.36 78.7148 235.13 78.7148ZM268.094 88.5781V90.8633H251.707V88.5781H258.484V85.4336H253.387V76.0586H256.199V78.6953H263.523V76.0586H266.336V85.4336H261.258V88.5781H268.094ZM256.199 83.207H263.523V80.9023H256.199V83.207ZM284.068 74.9453V85.1992H281.275V82.1719H278.521V79.9453H281.275V78.8711H278.521V76.6445H281.275V74.9453H284.068ZM275.806 77.2109C275.787 79.5742 276.822 82.0156 279.771 83.0508L278.17 85.2773C276.324 84.584 275.093 83.2949 274.361 81.6641C273.57 83.3828 272.252 84.75 270.298 85.4727L268.716 83.2656C271.802 82.1719 272.935 79.6914 272.935 77.2109V75.6094H275.806V77.2109ZM275.826 86.2148C275.826 87.6406 276.353 89.0859 277.74 90.082C279.107 89.0273 279.634 87.5234 279.654 86.2148V85.8438H282.427V86.2148C282.427 88.0898 283.287 89.8281 285.767 90.5703L284.341 92.6211C282.662 92.0449 281.587 91 280.982 89.6328C280.367 91 279.332 92.1621 277.72 92.7773C276.099 92.1816 275.054 91.0586 274.459 89.6914C273.843 91 272.789 92.0449 271.177 92.6211L269.81 90.5703C272.212 89.7891 273.091 88.0117 273.091 86.2148V85.8438H275.826V86.2148ZM300.296 74.9453V81.4688H302.835V83.7539H300.296V92.9141H297.484V74.9453H300.296ZM295.179 76.5859V78.8516H289.573V86.293C291.986 86.2734 294.066 86.127 296.331 85.7461L296.624 88.0898C293.87 88.5586 291.39 88.6172 288.304 88.6172H286.761V76.5859H295.179ZM312.579 76.3711V77.6602H315.645V74.9648H318.438V87.9922H315.645V83.7344H312.579V85.2188H303.985V76.3711H312.579ZM306.778 78.5781V83.0312H309.825V78.5781H306.778ZM318.809 90.3359V92.582H306.407V86.7422H309.259V90.3359H318.809ZM312.579 81.5273H315.645V79.9062H312.579V81.5273ZM324.491 89.5156L322.752 95.1602H320.467L321.405 89.5156H324.491Z" fill="white"/>
<path d="M51.0074 104.312V105.855C50.9879 107.33 50.9879 109.029 50.5777 111.246L51.6324 111.109L51.7887 113.18C50.7828 113.385 49.6793 113.521 48.566 113.609V119.469H45.8707V113.785C44.7769 113.824 43.7613 113.834 42.9215 113.844L42.609 111.539C44.025 111.549 45.9586 111.539 47.9019 111.441C48.0094 110.865 48.0875 110.328 48.1559 109.82L43.566 110.172L43.2926 107.984L48.3316 107.77C48.3414 107.359 48.3512 106.959 48.3512 106.578H43.7027V104.312H51.0074ZM58.8004 102.945V120.875H56.1441V102.945H58.8004ZM55.0894 103.199V120.074H52.4723V116.461H49.7379V114.371H52.4723V103.199H55.0894ZM69.6574 105.211C69.6379 107.711 71.591 110.543 75.9465 111.266L74.716 113.59C71.5129 112.984 69.3059 111.285 68.1535 109.078C66.9914 111.266 64.7746 112.975 61.591 113.59L60.3996 111.266C64.6574 110.523 66.6301 107.672 66.6496 105.211V103.961H69.6574V105.211ZM76.4543 116.441V118.746H60.0676V116.441H76.4543ZM91.9012 112.066V114.273H79.1277V104.195H91.7644V106.461H81.9988V108.102H91.3348V110.289H81.9988V112.066H91.9012ZM93.6394 116.598V118.863H77.2527V116.598H93.6394ZM104.028 105.211C104.008 107.711 105.961 110.543 110.317 111.266L109.086 113.59C105.883 112.984 103.676 111.285 102.524 109.078C101.362 111.266 99.1449 112.975 95.9613 113.59L94.7699 111.266C99.0277 110.523 101 107.672 101.02 105.211V103.961H104.028V105.211ZM110.825 116.441V118.746H94.4379V116.441H110.825ZM126.135 103.473V105.074C126.135 106.441 126.135 107.857 125.842 109.566H127.932V111.773H121.174V112.77H126.193V117.711H116.213V118.531H126.818V120.68H113.42V115.719H123.4V114.898H113.4V112.77H118.361V111.773H111.682V109.566H122.99C123.068 109.146 123.127 108.756 123.186 108.375L113.4 108.746L113.088 106.617L123.322 106.441V105.621H113.596V103.473H126.135ZM143.867 102.945V120.914H141.035V102.945H143.867ZM134.082 104.176C136.796 104.176 138.828 106.656 138.847 110.582C138.828 114.566 136.796 117.047 134.082 117.047C131.308 117.047 129.277 114.566 129.277 110.582C129.277 106.656 131.308 104.176 134.082 104.176ZM134.082 106.715C132.812 106.715 131.992 108.023 132.011 110.582C131.992 113.18 132.812 114.488 134.082 114.488C135.312 114.488 136.132 113.18 136.132 110.582C136.132 108.023 135.312 106.715 134.082 106.715ZM165.483 102.945V112.105H162.651V102.945H165.483ZM165.483 112.77V117.73H155.971V118.57H165.913V120.777H153.179V115.719H162.69V114.938H153.139V112.77H165.483ZM160.893 104.02V106.148H159.507V109.371C160.19 109.322 160.864 109.254 161.518 109.176L161.636 111.168C158.081 111.773 154.038 111.852 150.952 111.852L150.659 109.684L152.456 109.664V106.148H151.128V104.02H160.893ZM155.151 109.605L156.811 109.547V106.148H155.151V109.605ZM183.938 116.559V118.844H167.551V116.559H171.086V112.301C169.748 111.451 168.938 110.182 168.938 108.609C168.938 105.68 171.809 103.746 175.715 103.746C179.621 103.746 182.532 105.68 182.532 108.609C182.532 110.152 181.741 111.402 180.442 112.242V116.559H183.938ZM175.715 105.953C173.274 105.934 171.711 106.891 171.731 108.609C171.711 110.309 173.274 111.305 175.715 111.305C178.137 111.305 179.739 110.309 179.739 108.609C179.739 106.891 178.137 105.934 175.715 105.953ZM173.86 116.559H177.59V113.316C176.995 113.424 176.37 113.473 175.715 113.473C175.061 113.473 174.446 113.424 173.86 113.316V116.559ZM198.955 102.945V109.84H201.494V112.164H198.955V120.875H196.182V102.945H198.955ZM195.127 105.562V107.789H184.639V105.562H188.525V103.238H191.338V105.562H195.127ZM189.932 108.648C192.549 108.648 194.541 110.445 194.561 112.965C194.541 115.504 192.549 117.281 189.932 117.281C187.236 117.281 185.264 115.504 185.283 112.965C185.264 110.445 187.236 108.648 189.932 108.648ZM189.932 110.914C188.779 110.934 187.959 111.676 187.979 112.965C187.959 114.293 188.779 114.996 189.932 114.996C191.045 114.996 191.846 114.293 191.865 112.965C191.846 111.676 191.045 110.934 189.932 110.914ZM216.98 102.965V116.031H214.168V102.965H216.98ZM217.429 118.336V120.582H204.832V114.742H207.683V118.336H217.429ZM208.953 105.66C208.933 107.926 210.007 110.191 213.054 111.129L211.629 113.336C209.627 112.691 208.289 111.441 207.507 109.84C206.697 111.568 205.31 112.955 203.23 113.629L201.765 111.422C204.89 110.406 206.023 107.965 206.023 105.66V103.941H208.953V105.66ZM234.085 104.449V106.656H223.46V104.449H227.366V102.867H230.179V104.449H234.085ZM228.772 107.105C231.389 107.105 233.225 108.473 233.225 110.426C233.225 112.418 231.389 113.766 228.772 113.766C226.175 113.766 224.28 112.418 224.3 110.426C224.28 108.473 226.175 107.105 228.772 107.105ZM228.772 109.215C227.737 109.215 227.034 109.605 227.034 110.426C227.034 111.266 227.737 111.637 228.772 111.637C229.827 111.637 230.55 111.266 230.55 110.426C230.55 109.605 229.827 109.215 228.772 109.215ZM237.757 102.945V107.496H240.081V109.781H237.757V114.195H234.944V102.945H237.757ZM237.757 114.879V120.875H234.944V117.125H225.589V114.879H237.757ZM246.524 106.031C246.504 107.906 247.364 109.732 249.629 110.68V103.277H252.227V107.203H253.438V102.965H256.114V113.902H253.438V109.469H252.227V113.336H249.629V110.973L248.301 112.906C246.836 112.34 245.83 111.354 245.196 110.113C244.551 111.598 243.467 112.828 241.836 113.492L240.332 111.324C242.891 110.191 243.77 108.023 243.77 106.031V104.039H246.524V106.031ZM249.922 114.078C253.731 114.078 256.192 115.367 256.211 117.477C256.192 119.586 253.731 120.895 249.922 120.875C246.114 120.895 243.653 119.586 243.672 117.477C243.653 115.367 246.114 114.078 249.922 114.078ZM249.922 116.188C247.715 116.168 246.465 116.598 246.485 117.477C246.465 118.355 247.715 118.766 249.922 118.766C252.129 118.766 253.36 118.355 253.379 117.477C253.36 116.598 252.129 116.168 249.922 116.188ZM272.908 102.945V120.914H270.076V102.945H272.908ZM263.123 104.176C265.838 104.176 267.869 106.656 267.889 110.582C267.869 114.566 265.838 117.047 263.123 117.047C260.35 117.047 258.318 114.566 258.318 110.582C258.318 106.656 260.35 104.176 263.123 104.176ZM263.123 106.715C261.854 106.715 261.033 108.023 261.053 110.582C261.033 113.18 261.854 114.488 263.123 114.488C264.354 114.488 265.174 113.18 265.174 110.582C265.174 108.023 264.354 106.715 263.123 106.715ZM282.203 106.754C282.183 110.055 283.453 113.355 286.636 114.664L284.976 116.93C282.964 116.031 281.617 114.361 280.816 112.262C280.025 114.576 278.619 116.422 276.441 117.398L274.761 115.055C278.043 113.707 279.332 110.27 279.351 106.754V104.273H282.203V106.754ZM290.093 102.945V120.914H287.261V102.945H290.093ZM306.732 103.746V105.328C306.732 106.822 306.732 108.414 306.38 110.445H308.607V112.652H301.946V116.324H299.134V112.652H292.22V110.445H303.529C303.861 108.688 303.909 107.301 303.919 105.992H294.193V103.746H306.732ZM306.966 118.336V120.582H294.056V114.703H296.868V118.336H306.966ZM325.792 116.559V118.844H309.405V116.559H312.94V112.301C311.602 111.451 310.792 110.182 310.792 108.609C310.792 105.68 313.663 103.746 317.569 103.746C321.475 103.746 324.386 105.68 324.386 108.609C324.386 110.152 323.595 111.402 322.296 112.242V116.559H325.792ZM317.569 105.953C315.128 105.934 313.565 106.891 313.585 108.609C313.565 110.309 315.128 111.305 317.569 111.305C319.991 111.305 321.593 110.309 321.593 108.609C321.593 106.891 319.991 105.934 317.569 105.953ZM315.714 116.559H319.444V113.316C318.848 113.424 318.223 113.473 317.569 113.473C316.915 113.473 316.3 113.424 315.714 113.316V116.559ZM331.043 104.859L330.75 114.684H327.957L327.664 104.859H331.043ZM329.344 119.195C328.368 119.195 327.567 118.414 327.586 117.418C327.567 116.461 328.368 115.68 329.344 115.68C330.282 115.68 331.102 116.461 331.121 117.418C331.102 118.414 330.282 119.195 329.344 119.195Z" fill="#FFD100"/>
<g clip-path="url(#clip0_292_5601)">
<rect x="32" y="178" width="88" height="88" rx="44" fill="white"/>
<path d="M112.729 171.936L25.9316 185.057L39.0524 271.855L125.85 258.734L112.729 171.936Z" fill="white"/>
<mask id="mask0_292_5601" style="mask-type:luminance" maskUnits="userSpaceOnUse" x="25" y="171" width="101" height="101">
<path d="M112.729 171.936L25.9316 185.057L39.0524 271.854L125.85 258.734L112.729 171.936Z" fill="white"/>
</mask>
<g mask="url(#mask0_292_5601)">
</g>
<mask id="mask1_292_5601" style="mask-type:luminance" maskUnits="userSpaceOnUse" x="25" y="171" width="101" height="101">
<path d="M112.729 171.936L25.9316 185.057L39.0524 271.854L125.85 258.734L112.729 171.936Z" fill="white"/>
</mask>
<g mask="url(#mask1_292_5601)">
<path fill-rule="evenodd" clip-rule="evenodd" d="M86.3536 264.704C91.31 257.222 93.6154 247.948 92.1683 238.375C89.0701 217.879 69.9432 203.776 49.4473 206.874C42.1829 207.972 35.7215 211.084 30.5444 215.557L39.0547 271.854L86.3536 264.704Z" fill="#FFC20E"/>
<path d="M91.8742 254.977C90.5202 258.486 88.6845 261.783 86.4477 264.754M89.9128 222.703C82.525 210.979 66.3879 202.915 51.3768 205.29C43.221 206.582 36.0759 210.38 30.6337 215.779" stroke="#393432" stroke-width="0.698413" stroke-linecap="round" stroke-linejoin="round"/>
<path d="M37.1915 243.557C56.9095 242.321 73.9309 241.189 90.5937 232.171C91.0569 231.918 91.6135 231.862 92.1031 232.063C93.9177 232.806 94.8789 235.006 92.4376 237.36C92.1475 237.637 92.1649 238.079 92.4732 238.343C94.0371 239.717 95.23 242.235 92.6777 244.415C92.3706 244.674 92.3301 245.153 92.6198 245.434C93.8803 246.67 93.6617 248.448 91.0007 251.125C80.1389 260.388 59.5308 261.25 40.1503 263.177" stroke="#393432" stroke-width="0.698413" stroke-linecap="round" stroke-linejoin="round"/>
</g>
<path d="M70.9207 220.108C71.0188 220.757 70.5723 221.354 69.9301 221.451C69.2878 221.548 68.6837 221.103 68.5866 220.46C68.4895 219.818 68.935 219.214 69.5772 219.117C70.2194 219.02 70.8236 219.465 70.9207 220.108Z" fill="#393432"/>
<path d="M81.2273 216.155C81.3255 216.804 80.8789 217.401 80.2367 217.498C79.5945 217.595 78.9903 217.15 78.8932 216.508C78.7961 215.865 79.2416 215.261 79.8839 215.164C80.5261 215.067 81.1302 215.513 81.2273 216.155Z" fill="#393432"/>
<path d="M81.1638 220.862C80.977 220.607 80.2791 220.663 80.159 220.71C78.692 221.285 77.2318 221.859 75.7637 222.427C75.4102 222.565 75.0637 222.702 74.7102 222.84C74.3764 222.968 74.0208 223.093 73.8696 223.448C73.5662 224.15 74.3166 224.722 74.7674 225.134C75.7765 226.062 76.9269 226.991 78.1742 227.579C78.6987 227.825 79.6402 228.212 80.1844 227.84C80.485 227.632 80.5491 227.262 80.6334 226.932C80.7369 226.542 80.8266 226.154 80.9083 225.76C81.0862 224.928 81.2286 224.094 81.371 223.26C81.5096 222.448 81.6754 221.583 81.1648 220.869L81.1638 220.862ZM80.0473 224.223C79.9574 224.703 79.8675 225.183 79.7627 225.658C79.7084 225.906 79.6541 226.154 79.5919 226.397C79.5651 226.5 79.537 226.688 79.4946 226.828C79.3365 226.81 79.1561 226.738 79.0521 226.705C78.8511 226.636 78.6538 226.546 78.4613 226.441C78.0466 226.221 77.6544 225.962 77.2738 225.688C76.5228 225.159 75.7416 224.57 75.1089 223.889C75.1227 223.887 75.1365 223.885 75.1424 223.877L75.9498 223.564C76.4431 223.369 76.9363 223.175 77.4375 222.986C78.4113 222.606 79.392 222.224 80.3658 221.844C80.4255 222.146 80.3493 222.482 80.2954 222.78C80.2123 223.259 80.1304 223.744 80.0473 224.223Z" fill="#393432"/>
<path d="M97.4104 251.385C97.4299 252.074 97.4017 252.495 97.3952 253.153C97.3801 253.848 98.0441 254.362 98.7131 254.162C104.157 252.562 110.327 250.852 115.639 249.265C116.281 249.076 116.955 248.861 117.41 248.369C117.999 247.729 118.076 246.792 118.121 245.923L118.127 245.823" stroke="#393432" stroke-width="0.698413" stroke-miterlimit="10"/>
<path d="M97.0592 231.915C97.1072 229.195 97.2275 227.468 97.2755 224.748C97.2894 223.905 97.3119 223.026 97.685 222.27C98.3341 220.957 99.8395 220.355 101.22 219.864C106.126 218.112 111.031 216.354 115.929 214.603C116.66 214.344 117.572 214.115 118.127 214.653C118.499 215.013 118.549 215.578 118.577 216.089C118.787 219.815 118.842 223.543 118.805 227.271" stroke="#393432" stroke-width="0.698413" stroke-miterlimit="10"/>
<path d="M115.363 228.194C114.83 228.543 114.367 228.987 114.043 229.51C113.469 230.43 113.868 231.436 114.404 232.316C114.722 232.833 114.679 233.531 114.314 233.961C112.882 235.611 113.471 237.175 114.744 238.911C114.976 239.229 114.981 239.688 114.76 239.997C114.538 240.306 114.311 240.672 114.279 240.74C113.016 243.651 116.479 245.854 118.592 245.866C120.621 245.877 121.857 236.063 121.839 233.092C121.832 231.221 121.639 228.87 120.083 227.735C118.631 226.683 116.687 227.33 115.37 228.193L115.363 228.194Z" stroke="#393432" stroke-width="0.698413" stroke-miterlimit="10"/>
<path d="M50.4101 222.509C50.2207 223.032 50.4235 223.672 50.8825 223.998C51.3404 224.317 52.008 224.294 52.4416 223.939C52.8753 223.584 53.0231 222.926 52.7908 222.417" stroke="#393432" stroke-width="0.697714" stroke-linecap="round" stroke-linejoin="round"/>
<path d="M54.9561 226.222C54.8279 226.729 54.9501 227.304 55.3118 227.687C55.6734 228.07 56.2631 228.186 56.7505 227.999C57.4712 227.721 57.594 226.664 57.4335 226.116" stroke="#393432" stroke-width="0.697714" stroke-linecap="round" stroke-linejoin="round"/>
</g>
<path d="M144.908 206.271C144.908 207.775 145.783 209.225 147.752 209.84L146.822 211.193C145.503 210.756 144.58 209.908 144.047 208.814C143.507 210.072 142.543 211.057 141.121 211.535L140.178 210.168C142.256 209.471 143.145 207.816 143.158 206.107V204.973H144.908V206.271ZM150.24 204.316V207.229H151.922V208.678H150.24V211.699H148.49V204.316H150.24ZM146.166 211.945C148.736 211.945 150.363 212.834 150.363 214.352C150.363 215.883 148.736 216.758 146.166 216.758C143.541 216.758 141.9 215.883 141.9 214.352C141.9 212.834 143.541 211.945 146.166 211.945ZM146.166 213.312C144.525 213.312 143.637 213.668 143.65 214.352C143.637 215.062 144.525 215.391 146.166 215.391C147.779 215.391 148.641 215.062 148.641 214.352C148.641 213.668 147.779 213.312 146.166 213.312ZM162.27 204.316V207.119H163.951V208.555H162.27V211.303H160.52V204.316H162.27ZM158.428 205.096V206.477H154.627V209.443C156.876 209.43 158.114 209.348 159.508 209.061L159.686 210.428C158.127 210.783 156.692 210.838 153.93 210.838H152.877V205.096H158.428ZM162.27 211.822V216.607H154.135V211.822H162.27ZM155.858 213.203V215.24H160.547V213.203H155.858ZM170.102 204.494C172.96 204.494 174.614 205.246 174.628 206.613C174.614 207.994 172.96 208.746 170.102 208.746C167.231 208.746 165.563 207.994 165.563 206.613C165.563 205.246 167.231 204.494 170.102 204.494ZM170.102 205.766C168.27 205.766 167.381 206.066 167.395 206.613C167.381 207.229 168.27 207.461 170.102 207.461C171.948 207.461 172.823 207.229 172.823 206.613C172.823 206.066 171.948 205.766 170.102 205.766ZM175.776 209.334V210.715H164.428V209.334H175.776ZM174.395 211.439V214.611H167.464V215.363H174.723V216.676H165.755V213.395H172.673V212.711H165.741V211.439H174.395ZM185.616 206.217V207.598H179.601V206.217H181.761V204.658H183.484V206.217H185.616ZM182.636 208.158C184.222 208.158 185.357 209.389 185.37 211.111C185.357 212.848 184.222 214.078 182.636 214.078C181.05 214.078 179.888 212.848 179.888 211.111C179.888 209.389 181.05 208.158 182.636 208.158ZM182.636 209.607C181.911 209.607 181.419 210.168 181.419 211.111C181.419 212.055 181.911 212.602 182.636 212.602C183.333 212.602 183.825 212.055 183.839 211.111C183.825 210.168 183.333 209.607 182.636 209.607ZM190.374 204.316V216.758H188.72V210.77H187.708V216.225H186.081V204.562H187.708V209.375H188.72V204.316H190.374ZM194.994 205.191C196.894 205.191 198.261 206.914 198.275 209.621C198.261 212.355 196.894 214.064 194.994 214.064C193.093 214.064 191.699 212.355 191.713 209.621C191.699 206.914 193.093 205.191 194.994 205.191ZM194.994 206.764C194.037 206.764 193.394 207.775 193.394 209.621C193.394 211.48 194.037 212.479 194.994 212.479C195.964 212.479 196.593 211.48 196.607 209.621C196.593 207.775 195.964 206.764 194.994 206.764ZM203.224 207.201V208.664H201.461V210.879H203.224V212.301H201.461V216.758H199.711V204.316H201.461V207.201H203.224ZM216.647 204.316V209.184H218.479V210.619H216.647V216.758H214.924V204.316H216.647ZM214.076 206.176V207.57H206.762V206.176H209.578V204.508H211.328V206.176H214.076ZM210.453 208.268C212.272 208.268 213.625 209.498 213.625 211.234C213.625 212.971 212.272 214.201 210.453 214.201C208.621 214.201 207.268 212.971 207.268 211.234C207.268 209.498 208.621 208.268 210.453 208.268ZM210.453 209.676C209.578 209.689 208.936 210.277 208.936 211.234C208.936 212.205 209.578 212.779 210.453 212.766C211.328 212.779 211.957 212.205 211.957 211.234C211.957 210.277 211.328 209.689 210.453 209.676ZM229.251 204.33V213.367H227.501V204.33H229.251ZM225.614 205.232C225.614 208.609 223.481 210.975 219.721 212.068L219.038 210.688C221.82 209.888 223.413 208.445 223.713 206.668H219.749V205.232H225.614ZM229.51 215.145V216.539H220.938V212.574H222.674V215.145H229.51ZM243.863 204.316V209.184H245.695V210.619H243.863V216.758H242.14V204.316H243.863ZM241.292 206.176V207.57H233.978V206.176H236.794V204.508H238.544V206.176H241.292ZM237.669 208.268C239.488 208.268 240.841 209.498 240.841 211.234C240.841 212.971 239.488 214.201 237.669 214.201C235.837 214.201 234.484 212.971 234.484 211.234C234.484 209.498 235.837 208.268 237.669 208.268ZM237.669 209.676C236.794 209.689 236.152 210.277 236.152 211.234C236.152 212.205 236.794 212.779 237.669 212.766C238.544 212.779 239.173 212.205 239.173 211.234C239.173 210.277 238.544 209.689 237.669 209.676ZM256.179 207.707V209.074H247.484V204.754H249.22V207.707H256.179ZM257.451 210.414V211.781H246.062V210.414H257.451ZM256.261 215.09V216.484H247.375V212.793H249.125V215.09H256.261ZM268.892 204.316V216.758H267.211V204.316H268.892ZM266.254 204.535V216.197H264.627V210.277H262.398V208.855H264.627V204.535H266.254ZM263.246 205.725V207.119H260.197V212.533C261.53 212.526 262.535 212.458 263.697 212.219L263.834 213.641C262.426 213.928 261.168 213.982 259.349 213.982H258.488V205.725H263.246ZM271.748 215.623C271.106 215.623 270.586 215.104 270.6 214.475C270.586 213.846 271.106 213.34 271.748 213.34C272.35 213.34 272.883 213.846 272.883 214.475C272.883 215.104 272.35 215.623 271.748 215.623ZM275.629 215.623C274.987 215.623 274.467 215.104 274.481 214.475C274.467 213.846 274.987 213.34 275.629 213.34C276.231 213.34 276.764 213.846 276.764 214.475C276.764 215.104 276.231 215.623 275.629 215.623ZM145.031 228.449C145.031 230.062 145.893 231.662 147.875 232.318L146.932 233.686C145.612 233.2 144.703 232.284 144.184 231.129C143.644 232.428 142.673 233.453 141.23 233.973L140.287 232.605C142.365 231.922 143.268 230.213 143.268 228.436V227.082H145.031V228.449ZM150.855 226.33V235.518H149.119V230.377H146.781V228.969H149.119V226.33H150.855ZM151.115 237.145V238.539H142.57V234.547H144.334V237.145H151.115ZM156.377 228.531C156.377 229.871 157.075 231.211 158.729 231.84L157.799 233.166C156.74 232.763 156.008 232.024 155.557 231.102C155.106 232.182 154.326 233.084 153.164 233.562L152.221 232.223C153.971 231.457 154.682 229.926 154.682 228.531V227.068H156.377V228.531ZM163.09 226.33V233.932H161.436V230.773H160.397V233.549H158.77V226.549H160.397V229.365H161.436V226.33H163.09ZM158.838 234.109C161.463 234.109 163.145 234.984 163.159 236.434C163.145 237.883 161.463 238.758 158.838 238.758C156.2 238.758 154.532 237.883 154.532 236.434C154.532 234.984 156.2 234.109 158.838 234.109ZM158.838 235.408C157.211 235.408 156.268 235.764 156.282 236.434C156.268 237.104 157.211 237.445 158.838 237.445C160.451 237.445 161.395 237.104 161.395 236.434C161.395 235.764 160.451 235.408 158.838 235.408ZM174.833 226.316V233.303H173.096V226.316H174.833ZM166.889 227.027V231.225C168.776 231.211 170.376 231.074 172.044 230.719L172.249 232.127C170.307 232.537 168.448 232.688 166.219 232.688H165.139V227.027H166.889ZM174.833 233.809V238.607H166.52V233.809H174.833ZM168.229 235.176V237.24H173.124V235.176H168.229ZM179.52 227.738C179.507 230.842 179.206 233.631 177.62 236.092L176.267 235.381C177.545 233.446 177.928 231.56 178.017 229.146H176.677V227.738H179.52ZM182.31 227.738C182.303 228.832 182.282 229.919 182.186 230.979H183.253V226.59H184.894V238.211H183.253V232.387H182.009C181.742 233.911 181.27 235.374 180.409 236.721L179.083 235.982C180.471 233.863 180.758 231.669 180.819 229.146H179.876V227.738H182.31ZM187.341 226.316V238.758H185.673V226.316H187.341ZM195.076 227.191C196.757 227.191 198.008 228.579 198.261 230.814H200.421V226.316H202.144V238.785H200.421V232.209H198.275C198.09 234.602 196.812 236.064 195.076 236.064C193.189 236.064 191.836 234.355 191.849 231.621C191.836 228.914 193.189 227.191 195.076 227.191ZM195.076 228.764C194.146 228.764 193.504 229.775 193.517 231.621C193.504 233.48 194.146 234.479 195.076 234.479C196.019 234.479 196.634 233.48 196.634 231.621C196.634 229.775 196.019 228.764 195.076 228.764ZM214.598 237.145V238.539H205.615V234.561H207.365V237.145H214.598ZM214.269 226.33V235.326H212.56V231.006H210.838V229.611H212.56V226.33H214.269ZM207.133 227.246V228.654H205.574V232.168C206.128 232.134 206.641 232.079 207.215 231.949L207.351 233.357C206.367 233.576 205.588 233.562 204.48 233.562H203.879V227.246H207.133ZM211.234 227.246V228.654H209.471V232.168C210.352 232.147 210.899 232.086 211.521 231.936L211.672 233.344C210.783 233.549 210.045 233.562 208.418 233.562H207.734V227.246H211.234ZM229.346 226.316V232.551H227.61V230.377H225.368V228.969H227.61V226.316H229.346ZM225.217 226.768C225.217 230.021 223.262 232.004 219.598 232.879L219.024 231.498C221.738 230.896 223.085 229.687 223.344 228.176H219.708V226.768H225.217ZM229.346 233.029V236.434H222.838V237.254H229.62V238.635H221.088V235.148H227.596V234.396H221.075V233.029H229.346ZM237.478 227.191C238.592 227.191 239.522 227.807 240.089 228.873H242.823V226.316H244.546V238.785H242.823V234.123H240.226C239.665 235.354 238.681 236.064 237.478 236.064C235.591 236.064 234.238 234.355 234.251 231.621C234.238 228.914 235.591 227.191 237.478 227.191ZM237.478 228.764C236.548 228.764 235.905 229.775 235.919 231.621C235.905 233.48 236.548 234.479 237.478 234.479C238.421 234.479 239.036 233.48 239.036 231.621C239.036 229.775 238.421 228.764 237.478 228.764ZM240.581 230.281C240.656 230.691 240.704 231.143 240.704 231.621C240.704 232.011 240.67 232.38 240.622 232.729H242.823V230.281H240.581ZM250.054 226.932V228.312H249.343C249.343 229.071 249.583 229.967 250.259 230.637C250.916 229.967 251.155 229.071 251.162 228.312H250.464V226.932H254.033V228.312H252.816C252.83 229.324 253.308 230.397 254.484 230.979L253.677 232.209C252.843 231.833 252.303 231.184 251.982 230.418C251.688 231.259 251.155 231.99 250.246 232.414C249.357 231.997 248.824 231.279 248.523 230.459C248.209 231.238 247.675 231.901 246.841 232.291L246.035 231.047C247.197 230.452 247.675 229.324 247.689 228.312H246.376V226.932H250.054ZM256.767 226.33V238.758H255.017V236.324H252.419V234.943H255.017V226.33H256.767ZM246.021 232.975C248.427 232.975 251.572 232.947 254.347 232.551L254.511 233.822C253.39 234.021 252.228 234.15 251.093 234.232V238.389H249.343V234.342C248.229 234.39 247.169 234.403 246.226 234.41L246.021 232.975ZM260.43 227.301V228.859H263.287V227.301H265.037V233.029H262.754V234.916C263.718 234.868 264.681 234.793 265.584 234.67L265.707 235.941C263.109 236.406 260.306 236.42 258.187 236.42L257.955 234.998C258.871 234.991 259.917 234.991 261.017 234.971V233.029H258.721V227.301H260.43ZM260.43 231.662H263.287V230.186H260.43V231.662ZM267.99 226.316V231.293H269.685V232.742H267.99V238.758H266.24V226.316H267.99ZM273.485 227.191C275.385 227.191 276.752 228.914 276.766 231.621C276.752 234.355 275.385 236.064 273.485 236.064C271.584 236.064 270.19 234.355 270.203 231.621C270.19 228.914 271.584 227.191 273.485 227.191ZM273.485 228.764C272.527 228.764 271.885 229.775 271.885 231.621C271.885 233.48 272.527 234.479 273.485 234.479C274.455 234.479 275.084 233.48 275.098 231.621C275.084 229.775 274.455 228.764 273.485 228.764ZM281.715 229.201V230.664H279.951V232.879H281.715V234.301H279.951V238.758H278.201V226.316H279.951V229.201H281.715ZM295.192 226.289V228.996H296.874V230.391H295.192V233.029H293.442V226.289H295.192ZM295.192 233.535V236.68H288.671V237.391H295.548V238.676H286.962V235.49H293.456V234.793H286.934V233.535H295.192ZM292.704 227.246V228.572H285.321V227.246H288.151V226.234H289.887V227.246H292.704ZM289.012 228.873C290.872 228.873 292.075 229.666 292.075 230.91C292.075 232.182 290.872 232.947 289.012 232.947C287.153 232.947 285.923 232.182 285.923 230.91C285.923 229.666 287.153 228.873 289.012 228.873ZM289.012 230.104C288.151 230.104 287.618 230.391 287.632 230.91C287.618 231.443 288.151 231.703 289.012 231.703C289.874 231.703 290.421 231.443 290.421 230.91C290.421 230.391 289.874 230.104 289.012 230.104ZM307.318 226.316V231.197H308.972V232.633H307.318V238.758H305.568V226.316H307.318ZM301.069 227.588C301.056 231.006 300.7 233.672 298.472 236.119L297.105 235.148C298.8 233.316 299.292 231.491 299.401 229.01H297.651V227.588H301.069ZM304.515 227.588C304.515 231.143 304.2 234.219 301.999 236.926L300.618 235.955C302.307 233.877 302.765 231.744 302.874 229.01H301.48V227.588H304.515ZM311.554 234.383C311.568 232.688 312.019 232.154 312.839 231.648C313.427 231.266 313.878 230.842 313.878 230.213C313.878 229.529 313.345 229.078 312.689 229.078C312.046 229.078 311.458 229.502 311.431 230.309H309.49C309.531 228.381 310.953 227.465 312.703 227.465C314.603 227.465 315.956 228.463 315.956 230.145C315.956 231.266 315.382 231.99 314.48 232.523C313.714 232.988 313.372 233.426 313.359 234.383V234.533H311.554V234.383ZM312.497 237.623C311.855 237.623 311.335 237.104 311.349 236.475C311.335 235.846 311.855 235.34 312.497 235.34C313.099 235.34 313.632 235.846 313.632 236.475C313.632 237.104 313.099 237.623 312.497 237.623Z" fill="#CACACA"/>
<g clip-path="url(#clip1_292_5601)">
<rect x="32" y="306" width="88" height="88" rx="44" fill="white"/>
<path d="M77.4606 336.866C76.7342 336.363 75.952 337.488 76.6783 337.998C77.4047 338.501 78.1869 337.376 77.4606 336.866Z" fill="#393432"/>
<path d="M119.782 344.266L119.643 344.65C116.179 342.492 112.337 342.534 108.266 343.917L107.77 343.596C107.218 339.901 104.634 337.059 100.395 334.901L106.862 324.327C110.214 325.996 112.554 328.81 113.392 333.308C115.829 332.512 117.904 332.456 119.796 333.189" stroke="#393432" stroke-width="0.349206" stroke-linecap="round" stroke-linejoin="round"/>
<path d="M108.043 343.77C108.078 343.666 113.379 333.301 113.379 333.301" stroke="#393432" stroke-width="0.349206" stroke-linecap="round" stroke-linejoin="round"/>
<path d="M100.39 334.894L100.033 336.5C99.9845 336.723 100.089 336.94 100.292 337.038C102.946 338.351 105.411 340.683 107.765 343.589" stroke="#393432" stroke-width="0.349206" stroke-linecap="round" stroke-linejoin="round"/>
<path d="M108.264 343.91C112.028 343.896 114.996 344.685 118.502 346.026C118.684 346.096 118.9 346.026 118.991 345.852L119.648 344.643" stroke="#393432" stroke-width="0.349206" stroke-linecap="round" stroke-linejoin="round"/>
<path d="M107.267 325.556L104.928 329.334C106.213 329.746 107.253 330.906 107.833 331.779L110.194 328.531C109.433 327.232 108.552 326.247 107.26 325.556H107.267Z" stroke="#393432" stroke-width="0.349206" stroke-linecap="round" stroke-linejoin="round"/>
<path d="M110.551 329.746C111.529 330.801 111.948 331.646 112.402 333.154" stroke="#393432" stroke-width="0.349206" stroke-linecap="round" stroke-linejoin="round"/>
<path d="M109.672 331.255C110.699 332.225 111.104 333.071 111.572 334.481" stroke="#393432" stroke-width="0.349206" stroke-linecap="round" stroke-linejoin="round"/>
<path d="M108.547 332.63C109.636 333.608 110.041 334.467 110.447 335.878" stroke="#393432" stroke-width="0.349206" stroke-linecap="round" stroke-linejoin="round"/>
<path d="M104.467 331.45C106.639 332.77 108.301 334.831 109.544 337.513" stroke="#393432" stroke-width="0.349206" stroke-linecap="round" stroke-linejoin="round"/>
<path d="M103 333.154C105.361 334.419 107.044 336.388 108.196 338.895" stroke="#393432" stroke-width="0.349206" stroke-linecap="round" stroke-linejoin="round"/>
<path d="M113.951 334.209C115.516 333.608 117.709 333.916 119.783 334.46" stroke="#393432" stroke-width="0.349206" stroke-linecap="round" stroke-linejoin="round"/>
<path d="M113.238 335.634C115.005 335.096 117.911 335.187 119.789 335.99" stroke="#393432" stroke-width="0.349206" stroke-linecap="round" stroke-linejoin="round"/>
<path d="M112.561 337.093C114.509 336.549 117.596 336.842 119.782 337.485" stroke="#393432" stroke-width="0.349206" stroke-linecap="round" stroke-linejoin="round"/>
<path d="M111.736 338.874C113.811 338.148 117.575 338.49 119.782 339.559" stroke="#393432" stroke-width="0.349206" stroke-linecap="round" stroke-linejoin="round"/>
<path d="M110.824 340.83C113.213 340.097 117.005 340.753 119.785 342.087" stroke="#393432" stroke-width="0.349206" stroke-linecap="round" stroke-linejoin="round"/>
<path d="M114.845 374.723C114.134 372.534 111.881 370.257 109.487 369.638C105.95 368.724 102.354 370.694 101.163 374.073C97.6962 373.588 94.3486 375.767 93.452 379.236C92.7914 381.792 93.6382 384.377 95.4306 386.066C95.3681 386.252 95.3057 386.438 95.255 386.634C94.8932 388.034 94.9837 389.442 95.4344 390.713" stroke="#393432" stroke-width="0.349206" stroke-miterlimit="10"/>
<path d="M51.4526 330.389C49.6438 330.019 48.1561 328.741 47.5136 327.009C47.0736 325.821 47.0736 324.515 47.5136 323.328L48.2469 321.33L48.6869 318.446C48.7638 317.964 49.2945 317.706 49.7206 317.943L52.0812 319.27C52.3606 319.431 52.6958 319.445 52.9961 319.326L57.0469 317.643C57.3123 317.531 57.5149 317.308 57.5987 317.035L58.4298 314.283C58.5695 313.822 59.1212 313.641 59.5123 313.92L61.8939 315.652L63.8285 316.539C64.9809 317.063 65.9028 317.985 66.4406 319.13C67.2228 320.807 67.0831 322.762 66.0704 324.306C65.0438 325.87 63.5701 327.092 61.845 327.812L56.9352 329.851C55.2031 330.57 53.3034 330.752 51.4666 330.382L51.4526 330.389Z" stroke="#393432" stroke-width="0.349206" stroke-miterlimit="10"/>
<path d="M48.7656 325.297L51.9783 325.116" stroke="#393432" stroke-width="0.349206" stroke-linecap="round" stroke-linejoin="round"/>
<path d="M49.9238 328.468L52.5778 326.646" stroke="#393432" stroke-width="0.349206" stroke-linecap="round" stroke-linejoin="round"/>
<path d="M63.9488 319.193L61.5742 321.365" stroke="#393432" stroke-width="0.349206" stroke-linecap="round" stroke-linejoin="round"/>
<path d="M65.5783 322.001L62.4844 322.902" stroke="#393432" stroke-width="0.349206" stroke-linecap="round" stroke-linejoin="round"/>
<path d="M54.3671 324.236C54.695 324.236 54.9607 323.97 54.9607 323.642C54.9607 323.314 54.695 323.049 54.3671 323.049C54.0392 323.049 53.7734 323.314 53.7734 323.642C53.7734 323.97 54.0392 324.236 54.3671 324.236Z" fill="#393432"/>
<path d="M58.8163 322.497C59.1442 322.497 59.41 322.231 59.41 321.903C59.41 321.575 59.1442 321.309 58.8163 321.309C58.4884 321.309 58.2227 321.575 58.2227 321.903C58.2227 322.231 58.4884 322.497 58.8163 322.497Z" fill="#393432"/>
<path d="M57.0625 326.059L57.4327 324.732L58.592 325.353" stroke="#393432" stroke-width="0.349206" stroke-linecap="round" stroke-linejoin="round"/>
<path d="M80.1978 328.394C78.9965 330.448 78.0397 332.634 77.3413 334.911C77.1806 335.427 77.9908 335.651 78.1514 335.134C78.8289 332.927 79.7578 330.811 80.9172 328.821C81.1895 328.353 80.4632 327.934 80.1908 328.394H80.1978Z" fill="#393432"/>
<path d="M79.9797 375.173C87.9667 365.366 86.4913 350.942 76.6843 342.955C66.8774 334.968 52.4526 336.443 44.4656 346.25C36.4786 356.057 37.954 370.482 47.761 378.469C57.5679 386.456 71.9928 384.98 79.9797 375.173Z" fill="#FFC20E"/>
<path d="M39.391 371.476C37.645 368.424 36.5904 364.981 36.3809 361.259" stroke="#393432" stroke-width="0.698413" stroke-linecap="round" stroke-linejoin="round"/>
<path d="M57.4328 383.231C54.5833 382.951 51.9643 382.19 49.5059 380.982" stroke="#393432" stroke-width="0.698413" stroke-linecap="round" stroke-linejoin="round"/>
<path d="M79.8443 372.028C77.8049 375.394 74.9903 378.181 71.582 380.158" stroke="#393432" stroke-width="0.698413" stroke-linecap="round" stroke-linejoin="round"/>
<path d="M40.8242 346.117C45.0845 340.264 51.9918 336.465 59.7791 336.465C71.6312 336.465 81.4299 345.265 83.0014 356.684" stroke="#393432" stroke-width="0.698413" stroke-linecap="round" stroke-linejoin="round"/>
<path d="M76.248 372.503C89.0639 370.911 100.916 368.627 111.05 365.114C113.906 363.808 114.451 362.278 112.726 360.525C113.997 358.458 113.592 357.222 111.497 356.831C113.131 354.624 111.713 353.227 107.921 353.318C105.358 348.471 103.807 346.613 102.201 353.024C95.3147 355.182 86.6614 356.405 77.3446 357.278" stroke="#393432" stroke-width="0.698413" stroke-linecap="round" stroke-linejoin="round"/>
<path d="M39.5053 363.64C29.1339 355.944 19.9428 348.121 12.8469 340.076C11.0031 337.533 11.2825 335.934 13.6431 335.25C13.5523 332.819 14.5161 331.946 16.5346 332.638C16.1993 329.914 18.1199 329.397 21.3746 331.345C25.998 328.391 28.2539 327.532 26.4939 333.902C31.4317 339.168 38.353 344.497 46.0355 349.846" stroke="#393432" stroke-width="0.698413" stroke-linecap="round" stroke-linejoin="round"/>
<path d="M57.4324 383.231C56.4756 390.026 55.9308 396.528 55.9238 402.654C55.9238 403.471 56.5384 404.162 57.3486 404.274L72.2248 406.292C73.6286 406.481 74.5994 404.923 73.8102 403.75L70.9327 399.469L71.5822 380.165" stroke="#393432" stroke-width="0.698413" stroke-linecap="round" stroke-linejoin="round"/>
<path d="M49.5062 380.982C45.1761 386.967 40.7411 392.408 36.1735 397.101C35.6008 397.688 34.6789 397.751 34.0224 397.269L21.9608 388.329C20.8224 387.484 21.2135 385.689 22.6034 385.403L27.6529 384.348L39.3862 371.483" stroke="#393432" stroke-width="0.698413" stroke-linecap="round" stroke-linejoin="round"/>
<path d="M58.2152 348.904C58.7591 348.904 59.2 348.463 59.2 347.919C59.2 347.375 58.7591 346.934 58.2152 346.934C57.6714 346.934 57.2305 347.375 57.2305 347.919C57.2305 348.463 57.6714 348.904 58.2152 348.904Z" fill="#393432"/>
<path d="M66.9871 349.623C66.9871 350.168 66.5471 350.608 66.0023 350.608C65.4576 350.608 65.0176 350.168 65.0176 349.623C65.0176 349.078 65.4576 348.638 66.0023 348.638C66.5471 348.638 66.9871 349.078 66.9871 349.623Z" fill="#393432"/>
<path d="M63.8456 351.152C63.7688 351.118 63.6919 351.104 63.6151 351.104C63.5872 351.09 63.5592 351.069 63.5313 351.062C61.8761 350.768 60.2208 350.51 58.5586 350.279C58.3142 350.245 58.0278 350.335 57.9719 350.615C57.7624 351.585 58.2792 352.64 58.7123 353.478C59.0894 354.205 59.6481 355.315 60.6399 355.175C61.1078 355.112 61.464 354.784 61.7992 354.477C62.1834 354.121 62.5675 353.772 62.9516 353.415C63.3148 353.08 63.7548 352.759 64.0551 352.368C64.3345 351.991 64.3205 351.383 63.8526 351.159L63.8456 351.152ZM62.6932 352.347C62.4138 352.605 62.1275 352.864 61.8481 353.122C61.5757 353.366 61.3104 353.618 61.038 353.862C60.8913 353.995 60.6538 354.267 60.4234 354.219C60.2208 354.177 60.0672 353.897 59.9624 353.737C59.7738 353.436 59.5992 353.129 59.4386 352.815C59.285 352.507 59.1523 352.186 59.0405 351.858C58.9777 351.669 58.9148 351.481 58.8799 351.278C60.2907 351.481 61.7015 351.704 63.1053 351.949C62.9656 352.081 62.8259 352.207 62.6792 352.34L62.6932 352.347Z" fill="#393432"/>
</g>
<path d="M150.691 332.727V334.107H147.314C147.622 334.969 148.887 335.796 151.225 336.008L150.609 337.375C148.265 337.143 146.692 336.268 146.029 335.064C145.366 336.261 143.814 337.143 141.477 337.375L140.861 336.008C143.179 335.796 144.457 334.976 144.771 334.107H141.408V332.727H150.691ZM146.891 336.678V338.141H151.717V339.521H140.369V338.141H145.168V336.678H146.891ZM150.363 340.465V344.621H141.682V340.465H150.363ZM143.404 341.846V343.227H148.654V341.846H143.404ZM161.817 333.41V334.832H157.907V340.355C159.718 340.335 161.024 340.253 162.487 339.986L162.665 341.395C160.956 341.723 159.452 341.791 157.155 341.777H156.143V333.41H161.817ZM166.069 332.316V344.785H164.333V338.045H161.202V336.623H164.333V332.316H166.069ZM181.583 333.902V335.297H171.234V333.902H175.54V332.453H177.263V333.902H181.583ZM182.13 342.119V343.514H170.741V342.119H173.462V340.068C172.615 339.658 172.143 339.029 172.15 338.209C172.136 336.691 173.777 335.803 176.402 335.803C179.013 335.803 180.64 336.691 180.64 338.209C180.64 339.022 180.168 339.658 179.327 340.055V342.119H182.13ZM176.402 337.143C174.788 337.143 173.927 337.498 173.941 338.209C173.927 338.906 174.788 339.248 176.402 339.248C177.974 339.248 178.849 338.906 178.849 338.209C178.849 337.498 177.974 337.143 176.402 337.143ZM175.212 342.119H177.605V340.533C177.229 340.581 176.832 340.602 176.402 340.602C175.978 340.602 175.581 340.581 175.212 340.533V342.119ZM188.445 332.426C191.302 332.426 192.957 333.178 192.97 334.559C192.957 335.926 191.302 336.678 188.445 336.678C185.574 336.678 183.906 335.926 183.906 334.559C183.906 333.178 185.574 332.426 188.445 332.426ZM188.445 333.711C186.613 333.711 185.724 333.984 185.738 334.559C185.724 335.16 186.613 335.406 188.445 335.406C190.291 335.406 191.166 335.16 191.166 334.559C191.166 333.984 190.291 333.711 188.445 333.711ZM194.119 337.197V338.564H191.275V339.439H192.738V342.611H185.806V343.363H193.066V344.676H184.097V341.395H191.015V340.711H184.084V339.439H185.629V338.564H182.771V337.197H194.119ZM187.351 339.439H189.539V338.564H187.351V339.439ZM201.978 333.014V334.395H199.504C199.518 335.864 200.393 337.368 202.361 338.018L201.5 339.357C200.119 338.92 199.176 338.018 198.643 336.896C198.082 338.141 197.091 339.146 195.621 339.617L194.732 338.236C196.776 337.58 197.706 335.946 197.726 334.395H195.225V333.014H201.978ZM205.287 340.273V344.758H203.551V341.668H196.742V340.273H205.287ZM205.287 332.316V339.727H203.551V336.732H201.623V335.311H203.551V332.316H205.287ZM217.248 332.316V344.785H215.485V332.316H217.248ZM210.494 333.191C212.367 333.191 213.762 334.914 213.762 337.621C213.762 340.355 212.367 342.064 210.494 342.064C208.58 342.064 207.186 340.355 207.199 337.621C207.186 334.914 208.58 333.191 210.494 333.191ZM210.494 334.764C209.524 334.764 208.881 335.775 208.881 337.621C208.881 339.48 209.524 340.479 210.494 340.479C211.438 340.479 212.08 339.48 212.08 337.621C212.08 335.775 211.438 334.764 210.494 334.764ZM229.114 333.396V334.572C229.114 336.131 229.114 337.881 228.608 340.52L226.858 340.342C227.33 337.99 227.35 336.24 227.364 334.777H220.036V333.396H229.114ZM230.208 341.818V343.24H218.86V341.818H222.92V337.539H224.657V341.818H230.208ZM244.368 332.316V336.91H245.626V338.359H244.368V344.758H242.646V332.316H244.368ZM235.577 333.438V336.322H236.37V333.438H237.792V341.887H234.142V333.438H235.577ZM235.577 340.451H236.37V337.703H235.577V340.451ZM239.706 333.438V336.322H240.513V333.438H241.935V341.887H238.298V333.438H239.706ZM239.706 340.451H240.513V337.703H239.706V340.451ZM257.451 339.043V340.438H246.062V339.043H257.451ZM256.343 343.145V344.539H247.498V341.121H249.248V343.145H256.343ZM256.07 332.604V336.035H249.22V336.924H256.302V338.236H247.484V334.791H254.32V333.943H247.457V332.604H256.07ZM265.801 334.271C265.801 335.775 266.676 337.225 268.645 337.84L267.715 339.193C266.396 338.756 265.473 337.908 264.94 336.814C264.4 338.072 263.436 339.057 262.014 339.535L261.07 338.168C263.149 337.471 264.037 335.816 264.051 334.107V332.973H265.801V334.271ZM271.133 332.316V335.229H272.815V336.678H271.133V339.699H269.383V332.316H271.133ZM267.059 339.945C269.629 339.945 271.256 340.834 271.256 342.352C271.256 343.883 269.629 344.758 267.059 344.758C264.434 344.758 262.793 343.883 262.793 342.352C262.793 340.834 264.434 339.945 267.059 339.945ZM267.059 341.312C265.418 341.312 264.529 341.668 264.543 342.352C264.529 343.062 265.418 343.391 267.059 343.391C268.672 343.391 269.533 343.062 269.533 342.352C269.533 341.668 268.672 341.312 267.059 341.312ZM283.163 332.316V335.119H284.844V336.555H283.163V339.303H281.413V332.316H283.163ZM279.321 333.096V334.477H275.52V337.443C277.769 337.43 279.006 337.348 280.401 337.061L280.579 338.428C279.02 338.783 277.584 338.838 274.823 338.838H273.77V333.096H279.321ZM283.163 339.822V344.607H275.028V339.822H283.163ZM276.75 341.203V343.24H281.44V341.203H276.75ZM290.995 332.494C293.852 332.494 295.507 333.246 295.52 334.613C295.507 335.994 293.852 336.746 290.995 336.746C288.124 336.746 286.456 335.994 286.456 334.613C286.456 333.246 288.124 332.494 290.995 332.494ZM290.995 333.766C289.163 333.766 288.274 334.066 288.288 334.613C288.274 335.229 289.163 335.461 290.995 335.461C292.841 335.461 293.716 335.229 293.716 334.613C293.716 334.066 292.841 333.766 290.995 333.766ZM296.669 337.334V338.715H285.321V337.334H296.669ZM295.288 339.439V342.611H288.356V343.363H295.616V344.676H286.647V341.395H293.565V340.711H286.634V339.439H295.288ZM150.91 354.33V363.723H149.16V362.738H146.781V361.549H149.16V354.33H150.91ZM151.184 365.145V366.539H141.914V362.82H143.65V361.166C142.536 361.214 141.477 361.221 140.533 361.221L140.328 359.84C142.611 359.826 145.688 359.799 148.312 359.471L148.408 360.715C147.424 360.879 146.405 360.995 145.4 361.07V363.436H143.65V365.145H151.184ZM144.375 354.754C146.18 354.74 147.479 355.656 147.479 356.982C147.479 358.309 146.18 359.17 144.375 359.17C142.529 359.17 141.244 358.309 141.244 356.982C141.244 355.656 142.516 354.74 144.375 354.754ZM144.375 356.025C143.486 356.025 142.885 356.367 142.898 356.982C142.885 357.584 143.486 357.912 144.375 357.912C145.209 357.912 145.811 357.584 145.824 356.982C145.811 356.367 145.209 356.025 144.375 356.025ZM158.401 356.217V357.598H152.385V356.217H154.545V354.658H156.268V356.217H158.401ZM155.42 358.158C157.006 358.158 158.141 359.389 158.155 361.111C158.141 362.848 157.006 364.078 155.42 364.078C153.834 364.078 152.672 362.848 152.672 361.111C152.672 359.389 153.834 358.158 155.42 358.158ZM155.42 359.607C154.696 359.607 154.203 360.168 154.203 361.111C154.203 362.055 154.696 362.602 155.42 362.602C156.118 362.602 156.61 362.055 156.623 361.111C156.61 360.168 156.118 359.607 155.42 359.607ZM163.159 354.316V366.758H161.504V360.77H160.493V366.225H158.866V354.562H160.493V359.375H161.504V354.316H163.159ZM175.817 363.873V365.309H164.428V363.873H166.971V360.824C166.007 360.25 165.426 359.368 165.426 358.268C165.426 356.258 167.395 354.918 170.102 354.918C172.796 354.918 174.778 356.258 174.792 358.268C174.785 359.341 174.217 360.216 173.288 360.797V363.873H175.817ZM170.102 356.299C168.325 356.299 167.149 357.01 167.149 358.268C167.149 359.484 168.325 360.236 170.102 360.236C171.866 360.236 173.055 359.484 173.069 358.268C173.055 357.01 171.866 356.299 170.102 356.299ZM168.694 363.873H171.524V361.453C171.08 361.542 170.601 361.59 170.102 361.59C169.603 361.59 169.131 361.549 168.694 361.453V363.873ZM179.288 355.602L179.11 362.533H177.36L177.183 355.602H179.288ZM178.249 365.623C177.606 365.623 177.087 365.104 177.101 364.475C177.087 363.846 177.606 363.34 178.249 363.34C178.851 363.34 179.384 363.846 179.384 364.475C179.384 365.104 178.851 365.623 178.249 365.623Z" fill="#CACACA"/>
<g clip-path="url(#clip2_292_5601)">
<rect x="32" y="434" width="88" height="88" rx="44" fill="white"/>
<path d="M122.937 437.398L35.3984 430.847L28.8471 518.385L116.386 524.937L122.937 437.398Z" fill="white"/>
<path d="M105.234 455.98C105.613 450.914 101.398 446.465 95.8228 446.048C90.2481 445.631 85.417 449.402 85.0378 454.469C84.7682 458.071 86.8262 461.361 90.0445 463.11L90.2566 465.513C90.3365 466.351 91.2894 466.79 91.9788 466.307L94.3607 464.633L94.6737 464.419C100.162 464.722 104.86 460.988 105.233 455.992L105.234 455.98Z" stroke="#383432" stroke-width="1.07779" stroke-miterlimit="10"/>
<path d="M90.1979 454.374C89.2413 454.302 89.13 455.79 90.0865 455.862C91.0431 455.934 91.1544 454.446 90.1979 454.374Z" fill="#383432"/>
<path d="M93.6901 454.374C92.7335 454.302 92.6222 455.79 93.5787 455.862C94.5352 455.934 94.6466 454.446 93.6901 454.374Z" fill="#383432"/>
<path d="M97.1842 454.374C96.2277 454.302 96.1163 455.79 97.0728 455.862C98.0294 455.934 98.1407 454.446 97.1842 454.374Z" fill="#383432"/>
<path d="M100.678 454.374C99.7218 454.302 99.6104 455.79 100.567 455.862C101.524 455.933 101.635 454.445 100.678 454.374Z" fill="#383432"/>
<path d="M100.82 499.631C103.766 486.932 95.8596 474.249 83.1602 471.303C70.4609 468.357 57.7779 476.264 54.832 488.963C51.8862 501.662 59.7929 514.345 72.4922 517.291C85.1916 520.237 97.8746 512.33 100.82 499.631Z" fill="#FFC20E"/>
<path d="M74.702 516.891C87.8593 517.876 99.3226 508.009 100.307 494.851C101.292 481.694 91.4249 470.231 78.2677 469.246C65.1105 468.262 53.6471 478.129 52.6625 491.286C52.5926 492.219 52.5827 493.144 52.6101 494.049L52.7985 496.451" stroke="#393433" stroke-width="0.71063" stroke-miterlimit="10" stroke-linecap="round"/>
<path d="M55.2276 503.342C55.1417 503.165 54.929 503.092 54.7526 503.178C54.5762 503.264 54.5028 503.477 54.5888 503.653L55.2276 503.342ZM56.4815 505.492C56.0447 504.804 55.5778 504.061 55.2276 503.342L54.5888 503.653C54.9591 504.413 55.4473 505.189 55.8816 505.873L56.4815 505.492Z" fill="#393433"/>
<path d="M63.2959 502.355L63.7587 499.504C64.0062 497.943 64.758 496.467 65.9741 495.454C67.5438 494.158 69.3847 493.998 71.5741 495.374C72.8666 496.195 73.4953 496.681 74.2747 498.011" stroke="#393433" stroke-width="0.71063" stroke-miterlimit="10"/>
<path d="M74.7035 516.891L58.8623 515.587C58.2363 515.54 57.9731 514.772 58.3882 514.304L62.0459 510.184L62.6554 508.863" stroke="#393433" stroke-width="0.71063" stroke-miterlimit="10"/>
<path d="M64.0583 516.011L52.4899 515.062C51.8285 515.013 51.5189 514.23 51.9476 513.739L55.5409 509.685L57.2511 499.052C57.5131 497.457 58.2894 495.971 59.5527 494.961C61.6122 493.309 63.7524 493.755 65.9388 495.486" stroke="#393433" stroke-width="0.71063" stroke-miterlimit="10"/>
<path d="M90.7707 486.655C85.1485 492.268 78.2479 496.395 70.9828 499.522C69.5715 500.129 68.1393 500.698 66.697 501.244C65.2674 501.778 63.6494 502.132 62.2818 502.79C60.1755 503.796 60.8618 505.736 62.3409 506.761C62.612 506.948 62.7662 507.268 62.706 507.596C62.3641 509.625 63.2613 510.809 64.6698 511.033C65.1396 511.104 65.4647 511.52 65.3939 511.99C65.2497 512.965 65.4812 513.362 66.9925 513.642C77.8864 515.668 87.4314 508.105 94.1558 500.46" stroke="#393433" stroke-width="0.71063" stroke-miterlimit="10" stroke-linecap="round"/>
<path d="M64.571 480.395C64.5276 480.974 64.0326 481.4 63.454 481.357C62.8753 481.313 62.4492 480.818 62.4925 480.24C62.5358 479.661 63.0309 479.235 63.6095 479.278C64.1882 479.322 64.6143 479.817 64.571 480.395Z" fill="#393433"/>
<path d="M71.9245 479.912C71.8812 480.491 71.3861 480.917 70.8075 480.873C70.2288 480.83 69.8027 480.335 69.8461 479.756C69.8894 479.178 70.3844 478.752 70.963 478.795C71.5417 478.838 71.9678 479.333 71.9245 479.912Z" fill="#393433"/>
<g clip-path="url(#clip3_292_5601)">
<path d="M64.5492 485.49C64.6057 485.408 64.7314 485.326 64.8226 485.292C64.832 485.288 64.8509 485.279 64.8603 485.279C64.7503 485.301 64.8886 485.304 64.9577 485.339C65.2846 485.496 65.6083 485.634 65.9792 485.587C66.2809 485.549 66.5417 485.408 66.7837 485.229C66.922 485.125 67.1797 484.855 67.3526 484.836C67.5254 484.817 67.7706 485.056 67.9152 485.144C68.2169 485.329 68.55 485.452 68.9083 485.392C69.54 485.285 70.002 484.581 70.6306 485.094C70.8757 485.295 71.2214 485.336 71.4634 485.094C71.6709 484.886 71.7117 484.462 71.4634 484.261C70.7154 483.651 69.8952 483.56 69.0529 484.05C68.9649 484.1 68.8612 484.188 68.7606 484.223C68.6726 484.254 68.7763 484.264 68.6537 484.214C68.5312 484.163 68.418 484.066 68.308 483.994C67.9717 483.77 67.6103 483.607 67.1986 483.67C66.8372 483.723 66.5543 483.928 66.2714 484.144C66.0546 484.311 65.9069 484.474 65.6366 484.358C65.2406 484.188 64.9389 484.022 64.4989 484.16C64.0997 484.283 63.7666 484.553 63.5309 484.892C63.0972 485.518 64.1186 486.106 64.5492 485.486V485.49Z" fill="#393433"/>
</g>
<path d="M40.3079 470.574L38.7651 472.145L40.1903 473.891" stroke="white" stroke-width="0.71063" stroke-linecap="round" stroke-linejoin="round"/>
<path d="M31.5872 474.577C32.2769 475.994 33.7581 476.675 35.2902 476.517C36.3192 476.416 37.3336 475.874 37.694 474.868" stroke="white" stroke-width="0.71063" stroke-linecap="round" stroke-linejoin="round"/>
</g>
<path d="M150.24 460.316V462.723H151.922V464.158H150.24V466.537H148.49V460.316H150.24ZM146.713 460.904V466.072H140.738V460.904H146.713ZM142.461 462.271V464.691H144.99V462.271H142.461ZM150.24 467.029V470.42H143.719V471.254H150.596V472.621H142.01V469.162H148.504V468.369H141.982V467.029H150.24ZM163.787 469.941V471.377H152.399V469.941H157.198V468.068H153.711V463.885H160.752V462.518H153.698V461.123H162.475V465.252H155.461V466.646H162.762V468.068H158.934V469.941H163.787ZM172.179 463.707C172.165 465.607 173.177 467.795 175.228 468.738L174.257 470.105C172.869 469.47 171.878 468.198 171.331 466.701C170.77 468.349 169.752 469.743 168.31 470.42L167.298 469.039C169.376 468.068 170.415 465.758 170.429 463.707V462.941H167.79V461.52H174.681V462.941H172.179V463.707ZM177.401 460.316V465.061H179.233V466.523H177.401V472.758H175.651V460.316H177.401ZM190.033 460.33V469.408H188.283V460.33H190.033ZM190.361 471.145V472.539H181.693V468.533H183.456V471.145H190.361ZM184.386 462.217C184.372 463.857 185.247 465.471 187.298 466.127L186.409 467.494C185.008 467.029 184.037 466.1 183.484 464.91C182.93 466.188 181.932 467.214 180.476 467.713L179.574 466.332C181.665 465.635 182.568 463.898 182.568 462.217V461.014H184.386V462.217ZM195.677 461.15C197.646 461.137 199.123 462.422 199.123 464.199C199.123 465.99 197.646 467.262 195.677 467.262C193.709 467.262 192.218 465.99 192.218 464.199C192.218 462.422 193.709 461.137 195.677 461.15ZM195.677 462.654C194.693 462.654 193.941 463.229 193.955 464.199C193.941 465.184 194.693 465.744 195.677 465.744C196.662 465.744 197.414 465.184 197.427 464.199C197.414 463.229 196.675 462.654 195.677 462.654ZM202.103 460.316V472.785H200.367V460.316H202.103ZM191.699 468.82C193.914 468.834 196.99 468.793 199.656 468.424L199.793 469.682C197.031 470.215 194.078 470.242 191.904 470.242L191.699 468.82ZM210.809 462.531C210.809 463.871 211.506 465.211 213.16 465.84L212.231 467.166C211.171 466.763 210.44 466.024 209.989 465.102C209.537 466.182 208.758 467.084 207.596 467.562L206.653 466.223C208.403 465.457 209.114 463.926 209.114 462.531V461.068H210.809V462.531ZM217.522 460.33V467.932H215.867V464.773H214.828V467.549H213.201V460.549H214.828V463.365H215.867V460.33H217.522ZM213.27 468.109C215.895 468.109 217.576 468.984 217.59 470.434C217.576 471.883 215.895 472.758 213.27 472.758C210.631 472.758 208.963 471.883 208.963 470.434C208.963 468.984 210.631 468.109 213.27 468.109ZM213.27 469.408C211.643 469.408 210.699 469.764 210.713 470.434C210.699 471.104 211.643 471.445 213.27 471.445C214.883 471.445 215.826 471.104 215.826 470.434C215.826 469.764 214.883 469.408 213.27 469.408ZM228.731 460.316V463.229H230.413V464.678H228.731V467.549H226.981V460.316H228.731ZM225.231 461.014C225.231 464.336 223.139 466.578 219.407 467.521L218.682 466.195C221.519 465.484 223.078 464.076 223.344 462.395H219.338V461.014H225.231ZM228.731 468.041V472.758H226.981V469.436H220.35V468.041H228.731ZM236.563 460.494C239.421 460.494 241.075 461.246 241.089 462.613C241.075 463.994 239.421 464.746 236.563 464.746C233.692 464.746 232.024 463.994 232.024 462.613C232.024 461.246 233.692 460.494 236.563 460.494ZM236.563 461.766C234.731 461.766 233.843 462.066 233.856 462.613C233.843 463.229 234.731 463.461 236.563 463.461C238.409 463.461 239.284 463.229 239.284 462.613C239.284 462.066 238.409 461.766 236.563 461.766ZM242.237 465.334V466.715H230.89V465.334H242.237ZM240.856 467.439V470.611H233.925V471.363H241.184V472.676H232.216V469.395H239.134V468.711H232.202V467.439H240.856ZM256.562 460.316V467.699H254.826V464.76H252.884V463.352H254.826V460.316H256.562ZM252.31 467.973C254.962 467.986 256.589 468.861 256.603 470.379C256.589 471.883 254.962 472.771 252.31 472.771C249.658 472.771 248.031 471.883 248.031 470.379C248.031 468.861 249.658 467.986 252.31 467.973ZM252.31 469.312C250.656 469.312 249.767 469.654 249.767 470.379C249.767 471.09 250.656 471.445 252.31 471.445C253.964 471.445 254.867 471.09 254.867 470.379C254.867 469.654 253.964 469.312 252.31 469.312ZM253.253 461.068V462.463H250.779C250.82 463.912 251.695 465.375 253.636 466.018L252.775 467.385C251.401 466.94 250.458 466.038 249.918 464.91C249.364 466.182 248.373 467.207 246.896 467.713L245.994 466.332C248.038 465.648 248.954 464.021 249.001 462.463H246.5V461.068H253.253ZM268.537 460.316V472.785H266.801V460.316H268.537ZM264.681 461.355V466.154H260.58V468.438C262.473 468.431 264.087 468.321 265.912 468.027L266.062 469.436C264.012 469.791 262.166 469.873 259.896 469.873H258.775V464.773H262.904V462.764H258.762V461.355H264.681ZM279.951 460.316V465.184H281.783V466.619H279.951V472.758H278.229V460.316H279.951ZM277.381 462.176V463.57H270.067V462.176H272.883V460.508H274.633V462.176H277.381ZM273.758 464.268C275.576 464.268 276.93 465.498 276.93 467.234C276.93 468.971 275.576 470.201 273.758 470.201C271.926 470.201 270.572 468.971 270.572 467.234C270.572 465.498 271.926 464.268 273.758 464.268ZM273.758 465.676C272.883 465.689 272.24 466.277 272.24 467.234C272.24 468.205 272.883 468.779 273.758 468.766C274.633 468.779 275.262 468.205 275.262 467.234C275.262 466.277 274.633 465.689 273.758 465.676ZM292.624 460.316V472.758H290.86V460.316H292.624ZM288.891 461.615C288.891 465.389 287.565 468.52 283.122 470.625L282.206 469.23C285.418 467.713 286.833 465.744 287.114 462.982H282.875V461.615H288.891ZM143.801 483.191C144.915 483.191 145.845 483.807 146.412 484.873H149.146V482.316H150.869V494.785H149.146V490.123H146.549C145.988 491.354 145.004 492.064 143.801 492.064C141.914 492.064 140.561 490.355 140.574 487.621C140.561 484.914 141.914 483.191 143.801 483.191ZM143.801 484.764C142.871 484.764 142.229 485.775 142.242 487.621C142.229 489.48 142.871 490.479 143.801 490.479C144.744 490.479 145.359 489.48 145.359 487.621C145.359 485.775 144.744 484.764 143.801 484.764ZM146.904 486.281C146.979 486.691 147.027 487.143 147.027 487.621C147.027 488.011 146.993 488.38 146.945 488.729H149.146V486.281H146.904ZM162.885 482.316V494.785H161.149V489.768H159.016V488.332H161.149V486.377H159.057V484.955H161.149V482.316H162.885ZM158.401 483.355V488.141H154.573V490.561C156.111 490.554 157.478 490.479 159.043 490.246L159.18 491.668C157.321 491.969 155.735 491.996 153.821 491.996H152.836V486.787H156.692V484.736H152.809V483.355H158.401ZM175.803 488.373V489.768H171.087V491.928H169.323V489.768H164.415V488.373H175.803ZM174.546 493.131V494.539H165.768V490.82H167.532V493.131H174.546ZM170.102 482.549C172.796 482.562 174.587 483.561 174.6 485.133C174.587 486.719 172.796 487.703 170.102 487.703C167.395 487.703 165.59 486.719 165.59 485.133C165.59 483.561 167.395 482.562 170.102 482.549ZM170.102 483.93C168.489 483.93 167.464 484.34 167.477 485.133C167.464 485.898 168.489 486.309 170.102 486.309C171.702 486.309 172.727 485.898 172.727 485.133C172.727 484.34 171.702 483.93 170.102 483.93ZM186.997 483.424V484.805H179.615V483.424H182.445V482.248H184.181V483.424H186.997ZM183.306 485.201C185.111 485.201 186.368 486.131 186.368 487.498C186.368 488.865 185.111 489.795 183.306 489.795C181.501 489.795 180.216 488.865 180.216 487.498C180.216 486.131 181.501 485.201 183.306 485.201ZM183.306 486.514C182.472 486.514 181.911 486.855 181.925 487.498C181.911 488.127 182.472 488.455 183.306 488.455C184.14 488.455 184.714 488.127 184.714 487.498C184.714 486.855 184.14 486.514 183.306 486.514ZM189.486 482.316V485.543H191.167V486.965H189.486V490.123H187.736V482.316H189.486ZM189.486 490.643V494.758H187.736V492.037H181.105V490.643H189.486ZM195.623 484.531C195.623 485.871 196.32 487.211 197.974 487.84L197.045 489.166C195.985 488.763 195.254 488.024 194.802 487.102C194.351 488.182 193.572 489.084 192.41 489.562L191.466 488.223C193.216 487.457 193.927 485.926 193.927 484.531V483.068H195.623V484.531ZM202.336 482.33V489.932H200.681V486.773H199.642V489.549H198.015V482.549H199.642V485.365H200.681V482.33H202.336ZM198.084 490.109C200.709 490.109 202.39 490.984 202.404 492.434C202.39 493.883 200.709 494.758 198.084 494.758C195.445 494.758 193.777 493.883 193.777 492.434C193.777 490.984 195.445 490.109 198.084 490.109ZM198.084 491.408C196.457 491.408 195.513 491.764 195.527 492.434C195.513 493.104 196.457 493.445 198.084 493.445C199.697 493.445 200.64 493.104 200.64 492.434C200.64 491.764 199.697 491.408 198.084 491.408ZM214.092 482.316V494.785H212.328V482.316H214.092ZM207.338 483.191C209.211 483.191 210.605 484.914 210.605 487.621C210.605 490.355 209.211 492.064 207.338 492.064C205.424 492.064 204.029 490.355 204.043 487.621C204.029 484.914 205.424 483.191 207.338 483.191ZM207.338 484.764C206.367 484.764 205.725 485.775 205.725 487.621C205.725 489.48 206.367 490.479 207.338 490.479C208.281 490.479 208.924 489.48 208.924 487.621C208.924 485.775 208.281 484.764 207.338 484.764ZM226.49 482.316V494.758H224.823V482.316H226.49ZM223.893 482.494V494.184H222.252V488.305H221.254C221.09 490.752 220.051 492.229 218.52 492.229C216.879 492.229 215.813 490.506 215.813 487.703C215.813 484.914 216.879 483.205 218.52 483.205C220.017 483.205 221.042 484.6 221.24 486.924H222.252V482.494H223.893ZM218.52 484.846C217.823 484.846 217.412 485.803 217.426 487.703C217.412 489.617 217.823 490.561 218.52 490.547C219.231 490.561 219.655 489.617 219.655 487.703C219.655 485.803 219.231 484.846 218.52 484.846ZM239.122 491.873V493.309H227.733V491.873H230.276V488.824C229.312 488.25 228.731 487.368 228.731 486.268C228.731 484.258 230.7 482.918 233.407 482.918C236.1 482.918 238.083 484.258 238.096 486.268C238.089 487.341 237.522 488.216 236.592 488.797V491.873H239.122ZM233.407 484.299C231.629 484.299 230.454 485.01 230.454 486.268C230.454 487.484 231.629 488.236 233.407 488.236C235.17 488.236 236.36 487.484 236.374 486.268C236.36 485.01 235.17 484.299 233.407 484.299ZM231.999 491.873H234.829V489.453C234.384 489.542 233.906 489.59 233.407 489.59C232.908 489.59 232.436 489.549 231.999 489.453V491.873ZM242.593 483.602L242.415 490.533H240.665L240.487 483.602H242.593ZM241.554 493.623C240.911 493.623 240.391 493.104 240.405 492.475C240.391 491.846 240.911 491.34 241.554 491.34C242.155 491.34 242.688 491.846 242.688 492.475C242.688 493.104 242.155 493.623 241.554 493.623Z" fill="#CACACA"/>
<defs>
<clipPath id="clip0_292_5601">
<rect x="32" y="178" width="88" height="88" rx="44" fill="white"/>
</clipPath>
<clipPath id="clip1_292_5601">
<rect x="32" y="306" width="88" height="88" rx="44" fill="white"/>
</clipPath>
<clipPath id="clip2_292_5601">
<rect x="32" y="434" width="88" height="88" rx="44" fill="white"/>
</clipPath>
<clipPath id="clip3_292_5601">
<rect width="8.20914" height="2.09629" fill="white" transform="translate(63.4277 483.657)"/>
</clipPath>
</defs>
</svg>
